<?xml version="1.0" encoding="utf-8" standalone="no"?>
<!DOCTYPE svg PUBLIC "-//W3C//DTD SVG 1.1//EN"
  "http://www.w3.org/Graphics/SVG/1.1/DTD/svg11.dtd">
<svg xmlns:xlink="http://www.w3.org/1999/xlink" width="298.08pt" height="298.08pt" viewBox="0 0 298.08 298.08" xmlns="http://www.w3.org/2000/svg" version="1.1">
 <metadata>
  <rdf:RDF xmlns:dc="http://purl.org/dc/elements/1.1/" xmlns:cc="http://creativecommons.org/ns#" xmlns:rdf="http://www.w3.org/1999/02/22-rdf-syntax-ns#">
   <cc:Work>
    <dc:type rdf:resource="http://purl.org/dc/dcmitype/StillImage"/>
    <dc:date>2026-06-06T12:25:14.977571</dc:date>
    <dc:format>image/svg+xml</dc:format>
    <dc:creator>
     <cc:Agent>
      <dc:title>Matplotlib v3.10.9, https://matplotlib.org/</dc:title>
     </cc:Agent>
    </dc:creator>
   </cc:Work>
  </rdf:RDF>
 </metadata>
 <defs>
  <style type="text/css">*{stroke-linejoin: round; stroke-linecap: butt}</style>
 </defs>
 <g id="figure_1">
  <g id="patch_1">
   <path d="M 0 298.08
L 298.08 298.08
L 298.08 0
L 0 0
z
" style="fill: #ffffff"/>
  </g>
  <g id="axes_1">
   <g id="patch_2">
    <path d="M 14.844674 270.015019
L 296.64 270.015019
L 296.64 1.44
L 14.844674 1.44
z
" style="fill: #ffffff"/>
   </g>
   <g id="matplotlib.axis_1">
    <g id="xtick_1">
     <g id="line2d_1">
      <defs>
       <path id="m2e55329ffb" d="M 0 0
L 0 -4
" style="stroke: #000000; stroke-width: 0.8"/>
      </defs>
      <g>
       <use xlink:href="#m2e55329ffb" x="34.773551" y="270.015019" style="stroke: #000000; stroke-width: 0.8"/>
      </g>
     </g>
     <g id="line2d_2">
      <defs>
       <path id="m05505e8812" d="M 0 0
L 0 4
" style="stroke: #000000; stroke-width: 0.8"/>
      </defs>
      <g>
       <use xlink:href="#m05505e8812" x="34.773551" y="1.44" style="stroke: #000000; stroke-width: 0.8"/>
      </g>
     </g>
     <g id="text_1">
      <!-- $\mathdefault{1.25}$ -->
      <g transform="translate(25.080051 281.11334) scale(0.1 -0.1)">
       <defs>
        <path id="NimbusSanL-Regu-31" d="M 1658 3238
L 1658 0
L 2221 0
L 2221 4545
L 1850 4545
C 1651 3847 1523 3751 653 3642
L 653 3238
L 1658 3238
z
" transform="scale(0.015625)"/>
        <path id="NimbusSanL-Regu-2e" d="M 1222 667
L 557 667
L 557 0
L 1222 0
L 1222 667
z
" transform="scale(0.015625)"/>
        <path id="NimbusSanL-Regu-32" d="M 3238 558
L 851 558
C 909 930 1114 1167 1670 1494
L 2310 1840
C 2944 2186 3270 2653 3270 3211
C 3270 3589 3117 3942 2848 4185
C 2579 4429 2246 4544 1818 4544
C 1242 4544 813 4339 563 3955
C 403 3711 333 3429 320 2967
L 883 2967
C 902 3275 941 3461 1018 3608
C 1165 3884 1459 4051 1798 4051
C 2310 4051 2694 3685 2694 3198
C 2694 2839 2483 2531 2080 2301
L 1491 1968
C 544 1430 269 1000 218 0
L 3238 0
L 3238 558
z
" transform="scale(0.015625)"/>
        <path id="NimbusSanL-Regu-35" d="M 3046 4544
L 704 4544
L 365 2086
L 883 2086
C 1146 2399 1363 2508 1715 2508
C 2323 2508 2707 2092 2707 1421
C 2707 768 2330 372 1715 372
C 1222 372 922 621 787 1133
L 224 1133
C 301 762 365 582 499 415
C 755 70 1216 -128 1728 -128
C 2643 -128 3283 537 3283 1497
C 3283 2394 2688 3008 1818 3008
C 1498 3008 1242 2925 979 2732
L 1158 3987
L 3046 3987
L 3046 4544
z
" transform="scale(0.015625)"/>
       </defs>
       <use xlink:href="#NimbusSanL-Regu-31" transform="scale(0.996264)"/>
       <use xlink:href="#NimbusSanL-Regu-2e" transform="translate(55.391677 0) scale(0.996264)"/>
       <use xlink:href="#NimbusSanL-Regu-32" transform="translate(83.086847 0) scale(0.996264)"/>
       <use xlink:href="#NimbusSanL-Regu-35" transform="translate(138.478524 0) scale(0.996264)"/>
      </g>
     </g>
    </g>
    <g id="xtick_2">
     <g id="line2d_3">
      <g>
       <use xlink:href="#m2e55329ffb" x="70.373547" y="270.015019" style="stroke: #000000; stroke-width: 0.8"/>
      </g>
     </g>
     <g id="line2d_4">
      <g>
       <use xlink:href="#m05505e8812" x="70.373547" y="1.44" style="stroke: #000000; stroke-width: 0.8"/>
      </g>
     </g>
     <g id="text_2">
      <!-- $\mathdefault{1.50}$ -->
      <g transform="translate(60.680047 281.11334) scale(0.1 -0.1)">
       <defs>
        <path id="NimbusSanL-Regu-30" d="M 1760 4544
C 1338 4544 954 4360 717 4046
C 422 3651 275 3044 275 2208
C 275 683 787 -128 1760 -128
C 2720 -128 3245 683 3245 2170
C 3245 3050 3104 3638 2803 4046
C 2566 4366 2189 4544 1760 4544
z
M 1760 4044
C 2368 4044 2669 3432 2669 2221
C 2669 939 2374 340 1747 340
C 1152 340 851 965 851 2202
C 851 3438 1152 4044 1760 4044
z
" transform="scale(0.015625)"/>
       </defs>
       <use xlink:href="#NimbusSanL-Regu-31" transform="scale(0.996264)"/>
       <use xlink:href="#NimbusSanL-Regu-2e" transform="translate(55.391677 0) scale(0.996264)"/>
       <use xlink:href="#NimbusSanL-Regu-35" transform="translate(83.086847 0) scale(0.996264)"/>
       <use xlink:href="#NimbusSanL-Regu-30" transform="translate(138.478524 0) scale(0.996264)"/>
      </g>
     </g>
    </g>
    <g id="xtick_3">
     <g id="line2d_5">
      <g>
       <use xlink:href="#m2e55329ffb" x="105.973543" y="270.015019" style="stroke: #000000; stroke-width: 0.8"/>
      </g>
     </g>
     <g id="line2d_6">
      <g>
       <use xlink:href="#m05505e8812" x="105.973543" y="1.44" style="stroke: #000000; stroke-width: 0.8"/>
      </g>
     </g>
     <g id="text_3">
      <!-- $\mathdefault{1.75}$ -->
      <g transform="translate(96.280043 281.11334) scale(0.1 -0.1)">
       <defs>
        <path id="NimbusSanL-Regu-37" d="M 3328 4525
L 294 4525
L 294 3968
L 2746 3968
C 1664 2418 1222 1466 883 -32
L 1485 -32
C 1734 1427 2304 2681 3328 4051
L 3328 4525
z
" transform="scale(0.015625)"/>
       </defs>
       <use xlink:href="#NimbusSanL-Regu-31" transform="scale(0.996264)"/>
       <use xlink:href="#NimbusSanL-Regu-2e" transform="translate(55.391677 0) scale(0.996264)"/>
       <use xlink:href="#NimbusSanL-Regu-37" transform="translate(83.086847 0) scale(0.996264)"/>
       <use xlink:href="#NimbusSanL-Regu-35" transform="translate(138.478524 0) scale(0.996264)"/>
      </g>
     </g>
    </g>
    <g id="xtick_4">
     <g id="line2d_7">
      <g>
       <use xlink:href="#m2e55329ffb" x="141.573539" y="270.015019" style="stroke: #000000; stroke-width: 0.8"/>
      </g>
     </g>
     <g id="line2d_8">
      <g>
       <use xlink:href="#m05505e8812" x="141.573539" y="1.44" style="stroke: #000000; stroke-width: 0.8"/>
      </g>
     </g>
     <g id="text_4">
      <!-- $\mathdefault{2.00}$ -->
      <g transform="translate(131.880038 281.11334) scale(0.1 -0.1)">
       <use xlink:href="#NimbusSanL-Regu-32" transform="scale(0.996264)"/>
       <use xlink:href="#NimbusSanL-Regu-2e" transform="translate(55.391677 0) scale(0.996264)"/>
       <use xlink:href="#NimbusSanL-Regu-30" transform="translate(83.086847 0) scale(0.996264)"/>
       <use xlink:href="#NimbusSanL-Regu-30" transform="translate(138.478524 0) scale(0.996264)"/>
      </g>
     </g>
    </g>
    <g id="xtick_5">
     <g id="line2d_9">
      <g>
       <use xlink:href="#m2e55329ffb" x="177.173534" y="270.015019" style="stroke: #000000; stroke-width: 0.8"/>
      </g>
     </g>
     <g id="line2d_10">
      <g>
       <use xlink:href="#m05505e8812" x="177.173534" y="1.44" style="stroke: #000000; stroke-width: 0.8"/>
      </g>
     </g>
     <g id="text_5">
      <!-- $\mathdefault{2.25}$ -->
      <g transform="translate(167.480034 281.11334) scale(0.1 -0.1)">
       <use xlink:href="#NimbusSanL-Regu-32" transform="scale(0.996264)"/>
       <use xlink:href="#NimbusSanL-Regu-2e" transform="translate(55.391677 0) scale(0.996264)"/>
       <use xlink:href="#NimbusSanL-Regu-32" transform="translate(83.086847 0) scale(0.996264)"/>
       <use xlink:href="#NimbusSanL-Regu-35" transform="translate(138.478524 0) scale(0.996264)"/>
      </g>
     </g>
    </g>
    <g id="xtick_6">
     <g id="line2d_11">
      <g>
       <use xlink:href="#m2e55329ffb" x="212.77353" y="270.015019" style="stroke: #000000; stroke-width: 0.8"/>
      </g>
     </g>
     <g id="line2d_12">
      <g>
       <use xlink:href="#m05505e8812" x="212.77353" y="1.44" style="stroke: #000000; stroke-width: 0.8"/>
      </g>
     </g>
     <g id="text_6">
      <!-- $\mathdefault{2.50}$ -->
      <g transform="translate(203.08003 281.11334) scale(0.1 -0.1)">
       <use xlink:href="#NimbusSanL-Regu-32" transform="scale(0.996264)"/>
       <use xlink:href="#NimbusSanL-Regu-2e" transform="translate(55.391677 0) scale(0.996264)"/>
       <use xlink:href="#NimbusSanL-Regu-35" transform="translate(83.086847 0) scale(0.996264)"/>
       <use xlink:href="#NimbusSanL-Regu-30" transform="translate(138.478524 0) scale(0.996264)"/>
      </g>
     </g>
    </g>
    <g id="xtick_7">
     <g id="line2d_13">
      <g>
       <use xlink:href="#m2e55329ffb" x="248.373526" y="270.015019" style="stroke: #000000; stroke-width: 0.8"/>
      </g>
     </g>
     <g id="line2d_14">
      <g>
       <use xlink:href="#m05505e8812" x="248.373526" y="1.44" style="stroke: #000000; stroke-width: 0.8"/>
      </g>
     </g>
     <g id="text_7">
      <!-- $\mathdefault{2.75}$ -->
      <g transform="translate(238.680026 281.11334) scale(0.1 -0.1)">
       <use xlink:href="#NimbusSanL-Regu-32" transform="scale(0.996264)"/>
       <use xlink:href="#NimbusSanL-Regu-2e" transform="translate(55.391677 0) scale(0.996264)"/>
       <use xlink:href="#NimbusSanL-Regu-37" transform="translate(83.086847 0) scale(0.996264)"/>
       <use xlink:href="#NimbusSanL-Regu-35" transform="translate(138.478524 0) scale(0.996264)"/>
      </g>
     </g>
    </g>
    <g id="xtick_8">
     <g id="line2d_15">
      <g>
       <use xlink:href="#m2e55329ffb" x="283.973522" y="270.015019" style="stroke: #000000; stroke-width: 0.8"/>
      </g>
     </g>
     <g id="line2d_16">
      <g>
       <use xlink:href="#m05505e8812" x="283.973522" y="1.44" style="stroke: #000000; stroke-width: 0.8"/>
      </g>
     </g>
     <g id="text_8">
      <!-- $\mathdefault{3.00}$ -->
      <g transform="translate(274.280021 281.11334) scale(0.1 -0.1)">
       <defs>
        <path id="NimbusSanL-Regu-33" d="M 1414 2112
L 1485 2112
L 1722 2112
C 2342 2112 2662 1830 2662 1284
C 2662 712 2310 372 1722 372
C 1107 372 806 681 768 1345
L 205 1345
C 230 978 294 740 403 534
C 634 97 1082 -128 1702 -128
C 2637 -128 3238 431 3238 1293
C 3238 1872 3014 2194 2470 2381
C 2893 2546 3104 2862 3104 3311
C 3104 4082 2586 4544 1722 4544
C 806 4544 320 4050 301 3095
L 864 3095
C 870 3366 896 3517 966 3655
C 1094 3900 1376 4051 1728 4051
C 2227 4051 2528 3760 2528 3287
C 2528 2971 2413 2781 2163 2681
C 2010 2618 1811 2592 1414 2592
L 1414 2112
z
" transform="scale(0.015625)"/>
       </defs>
       <use xlink:href="#NimbusSanL-Regu-33" transform="scale(0.996264)"/>
       <use xlink:href="#NimbusSanL-Regu-2e" transform="translate(55.391677 0) scale(0.996264)"/>
       <use xlink:href="#NimbusSanL-Regu-30" transform="translate(83.086847 0) scale(0.996264)"/>
       <use xlink:href="#NimbusSanL-Regu-30" transform="translate(138.478524 0) scale(0.996264)"/>
      </g>
     </g>
    </g>
    <g id="xtick_9">
     <g id="line2d_17">
      <defs>
       <path id="m4cfd6a73b6" d="M 0 0
L 0 -2
" style="stroke: #000000; stroke-width: 0.6"/>
      </defs>
      <g>
       <use xlink:href="#m4cfd6a73b6" x="20.533553" y="270.015019" style="stroke: #000000; stroke-width: 0.6"/>
      </g>
     </g>
     <g id="line2d_18">
      <defs>
       <path id="mf31e1bb49e" d="M 0 0
L 0 2
" style="stroke: #000000; stroke-width: 0.6"/>
      </defs>
      <g>
       <use xlink:href="#mf31e1bb49e" x="20.533553" y="1.44" style="stroke: #000000; stroke-width: 0.6"/>
      </g>
     </g>
    </g>
    <g id="xtick_10">
     <g id="line2d_19">
      <g>
       <use xlink:href="#m4cfd6a73b6" x="27.653552" y="270.015019" style="stroke: #000000; stroke-width: 0.6"/>
      </g>
     </g>
     <g id="line2d_20">
      <g>
       <use xlink:href="#mf31e1bb49e" x="27.653552" y="1.44" style="stroke: #000000; stroke-width: 0.6"/>
      </g>
     </g>
    </g>
    <g id="xtick_11">
     <g id="line2d_21">
      <g>
       <use xlink:href="#m4cfd6a73b6" x="41.893551" y="270.015019" style="stroke: #000000; stroke-width: 0.6"/>
      </g>
     </g>
     <g id="line2d_22">
      <g>
       <use xlink:href="#mf31e1bb49e" x="41.893551" y="1.44" style="stroke: #000000; stroke-width: 0.6"/>
      </g>
     </g>
    </g>
    <g id="xtick_12">
     <g id="line2d_23">
      <g>
       <use xlink:href="#m4cfd6a73b6" x="49.01355" y="270.015019" style="stroke: #000000; stroke-width: 0.6"/>
      </g>
     </g>
     <g id="line2d_24">
      <g>
       <use xlink:href="#mf31e1bb49e" x="49.01355" y="1.44" style="stroke: #000000; stroke-width: 0.6"/>
      </g>
     </g>
    </g>
    <g id="xtick_13">
     <g id="line2d_25">
      <g>
       <use xlink:href="#m4cfd6a73b6" x="56.133549" y="270.015019" style="stroke: #000000; stroke-width: 0.6"/>
      </g>
     </g>
     <g id="line2d_26">
      <g>
       <use xlink:href="#mf31e1bb49e" x="56.133549" y="1.44" style="stroke: #000000; stroke-width: 0.6"/>
      </g>
     </g>
    </g>
    <g id="xtick_14">
     <g id="line2d_27">
      <g>
       <use xlink:href="#m4cfd6a73b6" x="63.253548" y="270.015019" style="stroke: #000000; stroke-width: 0.6"/>
      </g>
     </g>
     <g id="line2d_28">
      <g>
       <use xlink:href="#mf31e1bb49e" x="63.253548" y="1.44" style="stroke: #000000; stroke-width: 0.6"/>
      </g>
     </g>
    </g>
    <g id="xtick_15">
     <g id="line2d_29">
      <g>
       <use xlink:href="#m4cfd6a73b6" x="77.493546" y="270.015019" style="stroke: #000000; stroke-width: 0.6"/>
      </g>
     </g>
     <g id="line2d_30">
      <g>
       <use xlink:href="#mf31e1bb49e" x="77.493546" y="1.44" style="stroke: #000000; stroke-width: 0.6"/>
      </g>
     </g>
    </g>
    <g id="xtick_16">
     <g id="line2d_31">
      <g>
       <use xlink:href="#m4cfd6a73b6" x="84.613545" y="270.015019" style="stroke: #000000; stroke-width: 0.6"/>
      </g>
     </g>
     <g id="line2d_32">
      <g>
       <use xlink:href="#mf31e1bb49e" x="84.613545" y="1.44" style="stroke: #000000; stroke-width: 0.6"/>
      </g>
     </g>
    </g>
    <g id="xtick_17">
     <g id="line2d_33">
      <g>
       <use xlink:href="#m4cfd6a73b6" x="91.733545" y="270.015019" style="stroke: #000000; stroke-width: 0.6"/>
      </g>
     </g>
     <g id="line2d_34">
      <g>
       <use xlink:href="#mf31e1bb49e" x="91.733545" y="1.44" style="stroke: #000000; stroke-width: 0.6"/>
      </g>
     </g>
    </g>
    <g id="xtick_18">
     <g id="line2d_35">
      <g>
       <use xlink:href="#m4cfd6a73b6" x="98.853544" y="270.015019" style="stroke: #000000; stroke-width: 0.6"/>
      </g>
     </g>
     <g id="line2d_36">
      <g>
       <use xlink:href="#mf31e1bb49e" x="98.853544" y="1.44" style="stroke: #000000; stroke-width: 0.6"/>
      </g>
     </g>
    </g>
    <g id="xtick_19">
     <g id="line2d_37">
      <g>
       <use xlink:href="#m4cfd6a73b6" x="113.093542" y="270.015019" style="stroke: #000000; stroke-width: 0.6"/>
      </g>
     </g>
     <g id="line2d_38">
      <g>
       <use xlink:href="#mf31e1bb49e" x="113.093542" y="1.44" style="stroke: #000000; stroke-width: 0.6"/>
      </g>
     </g>
    </g>
    <g id="xtick_20">
     <g id="line2d_39">
      <g>
       <use xlink:href="#m4cfd6a73b6" x="120.213541" y="270.015019" style="stroke: #000000; stroke-width: 0.6"/>
      </g>
     </g>
     <g id="line2d_40">
      <g>
       <use xlink:href="#mf31e1bb49e" x="120.213541" y="1.44" style="stroke: #000000; stroke-width: 0.6"/>
      </g>
     </g>
    </g>
    <g id="xtick_21">
     <g id="line2d_41">
      <g>
       <use xlink:href="#m4cfd6a73b6" x="127.33354" y="270.015019" style="stroke: #000000; stroke-width: 0.6"/>
      </g>
     </g>
     <g id="line2d_42">
      <g>
       <use xlink:href="#mf31e1bb49e" x="127.33354" y="1.44" style="stroke: #000000; stroke-width: 0.6"/>
      </g>
     </g>
    </g>
    <g id="xtick_22">
     <g id="line2d_43">
      <g>
       <use xlink:href="#m4cfd6a73b6" x="134.453539" y="270.015019" style="stroke: #000000; stroke-width: 0.6"/>
      </g>
     </g>
     <g id="line2d_44">
      <g>
       <use xlink:href="#mf31e1bb49e" x="134.453539" y="1.44" style="stroke: #000000; stroke-width: 0.6"/>
      </g>
     </g>
    </g>
    <g id="xtick_23">
     <g id="line2d_45">
      <g>
       <use xlink:href="#m4cfd6a73b6" x="148.693538" y="270.015019" style="stroke: #000000; stroke-width: 0.6"/>
      </g>
     </g>
     <g id="line2d_46">
      <g>
       <use xlink:href="#mf31e1bb49e" x="148.693538" y="1.44" style="stroke: #000000; stroke-width: 0.6"/>
      </g>
     </g>
    </g>
    <g id="xtick_24">
     <g id="line2d_47">
      <g>
       <use xlink:href="#m4cfd6a73b6" x="155.813537" y="270.015019" style="stroke: #000000; stroke-width: 0.6"/>
      </g>
     </g>
     <g id="line2d_48">
      <g>
       <use xlink:href="#mf31e1bb49e" x="155.813537" y="1.44" style="stroke: #000000; stroke-width: 0.6"/>
      </g>
     </g>
    </g>
    <g id="xtick_25">
     <g id="line2d_49">
      <g>
       <use xlink:href="#m4cfd6a73b6" x="162.933536" y="270.015019" style="stroke: #000000; stroke-width: 0.6"/>
      </g>
     </g>
     <g id="line2d_50">
      <g>
       <use xlink:href="#mf31e1bb49e" x="162.933536" y="1.44" style="stroke: #000000; stroke-width: 0.6"/>
      </g>
     </g>
    </g>
    <g id="xtick_26">
     <g id="line2d_51">
      <g>
       <use xlink:href="#m4cfd6a73b6" x="170.053535" y="270.015019" style="stroke: #000000; stroke-width: 0.6"/>
      </g>
     </g>
     <g id="line2d_52">
      <g>
       <use xlink:href="#mf31e1bb49e" x="170.053535" y="1.44" style="stroke: #000000; stroke-width: 0.6"/>
      </g>
     </g>
    </g>
    <g id="xtick_27">
     <g id="line2d_53">
      <g>
       <use xlink:href="#m4cfd6a73b6" x="184.293534" y="270.015019" style="stroke: #000000; stroke-width: 0.6"/>
      </g>
     </g>
     <g id="line2d_54">
      <g>
       <use xlink:href="#mf31e1bb49e" x="184.293534" y="1.44" style="stroke: #000000; stroke-width: 0.6"/>
      </g>
     </g>
    </g>
    <g id="xtick_28">
     <g id="line2d_55">
      <g>
       <use xlink:href="#m4cfd6a73b6" x="191.413533" y="270.015019" style="stroke: #000000; stroke-width: 0.6"/>
      </g>
     </g>
     <g id="line2d_56">
      <g>
       <use xlink:href="#mf31e1bb49e" x="191.413533" y="1.44" style="stroke: #000000; stroke-width: 0.6"/>
      </g>
     </g>
    </g>
    <g id="xtick_29">
     <g id="line2d_57">
      <g>
       <use xlink:href="#m4cfd6a73b6" x="198.533532" y="270.015019" style="stroke: #000000; stroke-width: 0.6"/>
      </g>
     </g>
     <g id="line2d_58">
      <g>
       <use xlink:href="#mf31e1bb49e" x="198.533532" y="1.44" style="stroke: #000000; stroke-width: 0.6"/>
      </g>
     </g>
    </g>
    <g id="xtick_30">
     <g id="line2d_59">
      <g>
       <use xlink:href="#m4cfd6a73b6" x="205.653531" y="270.015019" style="stroke: #000000; stroke-width: 0.6"/>
      </g>
     </g>
     <g id="line2d_60">
      <g>
       <use xlink:href="#mf31e1bb49e" x="205.653531" y="1.44" style="stroke: #000000; stroke-width: 0.6"/>
      </g>
     </g>
    </g>
    <g id="xtick_31">
     <g id="line2d_61">
      <g>
       <use xlink:href="#m4cfd6a73b6" x="219.893529" y="270.015019" style="stroke: #000000; stroke-width: 0.6"/>
      </g>
     </g>
     <g id="line2d_62">
      <g>
       <use xlink:href="#mf31e1bb49e" x="219.893529" y="1.44" style="stroke: #000000; stroke-width: 0.6"/>
      </g>
     </g>
    </g>
    <g id="xtick_32">
     <g id="line2d_63">
      <g>
       <use xlink:href="#m4cfd6a73b6" x="227.013528" y="270.015019" style="stroke: #000000; stroke-width: 0.6"/>
      </g>
     </g>
     <g id="line2d_64">
      <g>
       <use xlink:href="#mf31e1bb49e" x="227.013528" y="1.44" style="stroke: #000000; stroke-width: 0.6"/>
      </g>
     </g>
    </g>
    <g id="xtick_33">
     <g id="line2d_65">
      <g>
       <use xlink:href="#m4cfd6a73b6" x="234.133528" y="270.015019" style="stroke: #000000; stroke-width: 0.6"/>
      </g>
     </g>
     <g id="line2d_66">
      <g>
       <use xlink:href="#mf31e1bb49e" x="234.133528" y="1.44" style="stroke: #000000; stroke-width: 0.6"/>
      </g>
     </g>
    </g>
    <g id="xtick_34">
     <g id="line2d_67">
      <g>
       <use xlink:href="#m4cfd6a73b6" x="241.253527" y="270.015019" style="stroke: #000000; stroke-width: 0.6"/>
      </g>
     </g>
     <g id="line2d_68">
      <g>
       <use xlink:href="#mf31e1bb49e" x="241.253527" y="1.44" style="stroke: #000000; stroke-width: 0.6"/>
      </g>
     </g>
    </g>
    <g id="xtick_35">
     <g id="line2d_69">
      <g>
       <use xlink:href="#m4cfd6a73b6" x="255.493525" y="270.015019" style="stroke: #000000; stroke-width: 0.6"/>
      </g>
     </g>
     <g id="line2d_70">
      <g>
       <use xlink:href="#mf31e1bb49e" x="255.493525" y="1.44" style="stroke: #000000; stroke-width: 0.6"/>
      </g>
     </g>
    </g>
    <g id="xtick_36">
     <g id="line2d_71">
      <g>
       <use xlink:href="#m4cfd6a73b6" x="262.613524" y="270.015019" style="stroke: #000000; stroke-width: 0.6"/>
      </g>
     </g>
     <g id="line2d_72">
      <g>
       <use xlink:href="#mf31e1bb49e" x="262.613524" y="1.44" style="stroke: #000000; stroke-width: 0.6"/>
      </g>
     </g>
    </g>
    <g id="xtick_37">
     <g id="line2d_73">
      <g>
       <use xlink:href="#m4cfd6a73b6" x="269.733523" y="270.015019" style="stroke: #000000; stroke-width: 0.6"/>
      </g>
     </g>
     <g id="line2d_74">
      <g>
       <use xlink:href="#mf31e1bb49e" x="269.733523" y="1.44" style="stroke: #000000; stroke-width: 0.6"/>
      </g>
     </g>
    </g>
    <g id="xtick_38">
     <g id="line2d_75">
      <g>
       <use xlink:href="#m4cfd6a73b6" x="276.853522" y="270.015019" style="stroke: #000000; stroke-width: 0.6"/>
      </g>
     </g>
     <g id="line2d_76">
      <g>
       <use xlink:href="#mf31e1bb49e" x="276.853522" y="1.44" style="stroke: #000000; stroke-width: 0.6"/>
      </g>
     </g>
    </g>
    <g id="xtick_39">
     <g id="line2d_77">
      <g>
       <use xlink:href="#m4cfd6a73b6" x="291.093521" y="270.015019" style="stroke: #000000; stroke-width: 0.6"/>
      </g>
     </g>
     <g id="line2d_78">
      <g>
       <use xlink:href="#mf31e1bb49e" x="291.093521" y="1.44" style="stroke: #000000; stroke-width: 0.6"/>
      </g>
     </g>
    </g>
    <g id="text_9">
     <!-- Energy (eV) -->
     <g transform="translate(129.167318 294.518014) scale(0.1 -0.1)">
      <defs>
       <path id="NimbusSanL-Regu-45" d="M 1171 2112
L 3712 2112
L 3712 2638
L 1171 2638
L 1171 4146
L 3808 4146
L 3808 4672
L 576 4672
L 576 0
L 3923 0
L 3923 526
L 1171 526
L 1171 2112
z
" transform="scale(0.015625)"/>
       <path id="NimbusSanL-Regu-6e" d="M 448 3359
L 448 0
L 986 0
L 986 1853
C 986 2539 1344 2988 1894 2988
C 2317 2988 2586 2731 2586 2327
L 2586 0
L 3117 0
L 3117 2539
C 3117 3097 2701 3456 2054 3456
C 1555 3456 1235 3263 941 2796
L 941 3359
L 448 3359
z
" transform="scale(0.015625)"/>
       <path id="NimbusSanL-Regu-65" d="M 3283 1529
C 3283 2034 3245 2338 3149 2584
C 2931 3127 2419 3456 1792 3456
C 858 3456 256 2742 256 1645
C 256 547 838 -128 1779 -128
C 2547 -128 3078 310 3213 1044
L 2675 1044
C 2528 598 2227 365 1798 365
C 1459 365 1171 520 992 805
C 864 998 819 1193 813 1529
L 3283 1529
z
M 826 1984
C 870 2577 1248 2962 1786 2962
C 2310 2962 2714 2530 2714 1984
C 2714 1984 2714 1984 2707 1984
L 826 1984
z
" transform="scale(0.015625)"/>
       <path id="NimbusSanL-Regu-72" d="M 442 3359
L 442 0
L 979 0
L 979 1741
C 979 2221 1101 2535 1357 2720
C 1523 2842 1683 2880 2054 2880
L 2054 3432
C 1965 3444 1920 3444 1850 3444
C 1504 3444 1242 3240 934 2746
L 934 3359
L 442 3359
z
" transform="scale(0.015625)"/>
       <path id="NimbusSanL-Regu-67" d="M 2637 3341
L 2637 2854
C 2368 3252 2042 3438 1613 3438
C 762 3438 186 2692 186 1600
C 186 1048 333 598 608 276
C 858 -7 1216 -173 1568 -173
C 1990 -173 2285 6 2586 429
L 2586 258
C 2586 -192 2528 -465 2394 -649
C 2253 -844 1978 -959 1651 -959
C 1408 -959 1190 -896 1043 -783
C 922 -688 870 -600 838 -406
L 294 -406
C 352 -1033 845 -1408 1632 -1408
C 2131 -1408 2560 -1247 2778 -979
C 3034 -671 3130 -249 3130 538
L 3130 3341
L 2637 3341
z
M 1670 2944
C 2246 2944 2586 2455 2586 1613
C 2586 808 2240 320 1677 320
C 1094 320 742 816 742 1632
C 742 2442 1101 2944 1670 2944
z
" transform="scale(0.015625)"/>
       <path id="NimbusSanL-Regu-79" d="M 2483 3360
L 1555 738
L 698 3360
L 128 3360
L 1261 -21
L 1056 -554
C 973 -792 851 -882 627 -882
C 550 -882 461 -869 346 -843
L 346 -1325
C 454 -1382 563 -1408 704 -1408
C 877 -1408 1062 -1350 1203 -1247
C 1370 -1125 1466 -983 1568 -713
L 3059 3360
L 2483 3360
z
" transform="scale(0.015625)"/>
       <path id="NimbusSanL-Regu-28" d="M 1510 4672
C 870 3830 467 2660 467 1651
C 467 636 870 -534 1510 -1376
L 1862 -1376
C 1299 -457 986 623 986 1651
C 986 2673 1299 3759 1862 4672
L 1510 4672
z
" transform="scale(0.015625)"/>
       <path id="NimbusSanL-Regu-56" d="M 2509 0
L 4128 4672
L 3494 4672
L 2202 718
L 832 4672
L 192 4672
L 1869 0
L 2509 0
z
" transform="scale(0.015625)"/>
       <path id="NimbusSanL-Regu-29" d="M 595 -1376
C 1235 -534 1638 636 1638 1644
C 1638 2660 1235 3830 595 4672
L 243 4672
C 806 3753 1120 2673 1120 1644
C 1120 623 806 -464 243 -1376
L 595 -1376
z
" transform="scale(0.015625)"/>
      </defs>
      <use xlink:href="#NimbusSanL-Regu-45" transform="scale(0.996264)"/>
      <use xlink:href="#NimbusSanL-Regu-6e" transform="translate(66.450031 0) scale(0.996264)"/>
      <use xlink:href="#NimbusSanL-Regu-65" transform="translate(121.841708 0) scale(0.996264)"/>
      <use xlink:href="#NimbusSanL-Regu-72" transform="translate(177.233385 0) scale(0.996264)"/>
      <use xlink:href="#NimbusSanL-Regu-67" transform="translate(210.408615 0) scale(0.996264)"/>
      <use xlink:href="#NimbusSanL-Regu-79" transform="translate(265.800292 0) scale(0.996264)"/>
      <use xlink:href="#NimbusSanL-Regu-28" transform="translate(343.308662 0) scale(0.996264)"/>
      <use xlink:href="#NimbusSanL-Regu-65" transform="translate(376.483892 0) scale(0.996264)"/>
      <use xlink:href="#NimbusSanL-Regu-56" transform="translate(431.875569 0) scale(0.996264)"/>
      <use xlink:href="#NimbusSanL-Regu-29" transform="translate(498.3256 0) scale(0.996264)"/>
     </g>
    </g>
   </g>
   <g id="matplotlib.axis_2">
    <g id="text_10">
     <!-- Intensity (arb. u.) -->
     <g transform="translate(8.722687 173.231219) rotate(-90) scale(0.1 -0.1)">
      <defs>
       <path id="NimbusSanL-Regu-49" d="M 1242 4672
L 640 4672
L 640 -2
L 1242 -2
L 1242 4672
z
" transform="scale(0.015625)"/>
       <path id="NimbusSanL-Regu-74" d="M 1626 3380
L 1075 3380
L 1075 4288
L 544 4288
L 544 3380
L 90 3380
L 90 2944
L 544 2944
L 544 404
C 544 64 774 -128 1190 -128
C 1318 -128 1446 -116 1626 -83
L 1626 366
C 1555 346 1472 340 1370 340
C 1139 340 1075 404 1075 641
L 1075 2944
L 1626 2944
L 1626 3380
z
" transform="scale(0.015625)"/>
       <path id="NimbusSanL-Regu-73" d="M 2803 2427
C 2797 3085 2362 3456 1587 3456
C 806 3456 301 3054 301 2436
C 301 1913 570 1665 1363 1474
L 1862 1353
C 2234 1263 2381 1130 2381 888
C 2381 576 2067 365 1600 365
C 1312 365 1069 448 934 588
C 851 684 813 779 781 1014
L 218 1014
C 243 241 678 -128 1555 -128
C 2400 -128 2938 285 2938 929
C 2938 1426 2656 1701 1990 1860
L 1478 1981
C 1043 2082 858 2223 858 2458
C 858 2764 1133 2962 1568 2962
C 1997 2962 2227 2777 2240 2427
L 2803 2427
z
" transform="scale(0.015625)"/>
       <path id="NimbusSanL-Regu-69" d="M 960 3359
L 429 3359
L 429 0
L 960 0
L 960 3359
z
M 960 4672
L 422 4672
L 422 3999
L 960 3999
L 960 4672
z
" transform="scale(0.015625)"/>
       <path id="NimbusSanL-Regu-61" d="M 3424 333
C 3366 320 3341 320 3309 320
C 3123 320 3021 415 3021 581
L 3021 2545
C 3021 3137 2586 3456 1760 3456
C 1274 3456 870 3316 646 3066
C 493 2893 429 2702 416 2370
L 954 2370
C 998 2777 1242 2962 1741 2962
C 2221 2962 2490 2783 2490 2465
L 2490 2325
C 2490 2101 2355 2006 1933 1955
C 1178 1860 1062 1834 858 1751
C 467 1592 269 1292 269 859
C 269 254 691 -128 1370 -128
C 1792 -128 2131 19 2509 365
C 2547 25 2714 -128 3059 -128
C 3168 -128 3251 -116 3424 -70
L 3424 333
z
M 2490 1072
C 2490 893 2438 785 2278 639
C 2061 441 1798 340 1485 340
C 1069 340 826 537 826 874
C 826 1225 1062 1403 1632 1486
C 2195 1562 2310 1588 2490 1670
L 2490 1072
z
" transform="scale(0.015625)"/>
       <path id="NimbusSanL-Regu-62" d="M 346 4672
L 346 -2
L 826 -2
L 826 448
C 1082 57 1421 -128 1888 -128
C 2771 -128 3347 592 3347 1702
C 3347 2786 2797 3456 1914 3456
C 1453 3456 1126 3282 877 2905
L 877 4672
L 346 4672
z
M 1811 2956
C 2406 2956 2790 2440 2790 1645
C 2790 887 2394 372 1811 372
C 1248 372 877 881 877 1664
C 877 2447 1248 2956 1811 2956
z
" transform="scale(0.015625)"/>
       <path id="NimbusSanL-Regu-75" d="M 3085 33
L 3085 3392
L 2554 3392
L 2554 1479
C 2554 790 2195 340 1638 340
C 1216 340 947 597 947 1003
L 947 3392
L 416 3392
L 416 792
C 416 232 832 -128 1485 -128
C 1978 -128 2291 45 2605 488
L 2605 33
L 3085 33
z
" transform="scale(0.015625)"/>
      </defs>
      <use xlink:href="#NimbusSanL-Regu-49" transform="scale(0.996264)"/>
      <use xlink:href="#NimbusSanL-Regu-6e" transform="translate(27.69517 0) scale(0.996264)"/>
      <use xlink:href="#NimbusSanL-Regu-74" transform="translate(83.086847 0) scale(0.996264)"/>
      <use xlink:href="#NimbusSanL-Regu-65" transform="translate(110.782016 0) scale(0.996264)"/>
      <use xlink:href="#NimbusSanL-Regu-6e" transform="translate(166.173693 0) scale(0.996264)"/>
      <use xlink:href="#NimbusSanL-Regu-73" transform="translate(221.56537 0) scale(0.996264)"/>
      <use xlink:href="#NimbusSanL-Regu-69" transform="translate(271.378571 0) scale(0.996264)"/>
      <use xlink:href="#NimbusSanL-Regu-74" transform="translate(293.495355 0) scale(0.996264)"/>
      <use xlink:href="#NimbusSanL-Regu-79" transform="translate(321.190525 0) scale(0.996264)"/>
      <use xlink:href="#NimbusSanL-Regu-28" transform="translate(398.698895 0) scale(0.996264)"/>
      <use xlink:href="#NimbusSanL-Regu-61" transform="translate(431.874124 0) scale(0.996264)"/>
      <use xlink:href="#NimbusSanL-Regu-72" transform="translate(487.265801 0) scale(0.996264)"/>
      <use xlink:href="#NimbusSanL-Regu-62" transform="translate(520.441031 0) scale(0.996264)"/>
      <use xlink:href="#NimbusSanL-Regu-2e" transform="translate(571.848595 0) scale(0.996264)"/>
      <use xlink:href="#NimbusSanL-Regu-75" transform="translate(633.813416 0) scale(0.996264)"/>
      <use xlink:href="#NimbusSanL-Regu-2e" transform="translate(689.205093 0) scale(0.996264)"/>
      <use xlink:href="#NimbusSanL-Regu-29" transform="translate(716.900262 0) scale(0.996264)"/>
     </g>
    </g>
   </g>
   <g id="line2d_79">
    <path d="M 27.653552 257.789365
L 47.58955 257.635521
L 56.845549 257.356917
L 63.395948 256.945716
L 68.522347 256.404218
L 72.794347 255.729273
L 76.354346 254.951477
L 79.629546 254.013093
L 82.619946 252.919832
L 85.325545 251.699192
L 87.888745 250.296609
L 90.309545 248.72181
L 92.587945 246.983028
L 94.866344 244.95883
L 97.144744 242.625705
L 99.280744 240.11509
L 101.416743 237.263427
L 103.552743 234.05104
L 105.688743 230.427056
L 107.967143 226.087368
L 110.103142 221.553524
L 112.239142 216.512357
L 114.659942 210.194595
L 116.938342 203.62918
L 119.359141 195.948878
L 121.922341 187.088043
L 124.485541 177.405835
L 127.47594 165.201767
L 130.32394 152.679378
L 134.16874 134.683729
L 138.583139 112.849521
L 147.696738 67.870503
L 150.544738 54.979704
L 153.107937 44.46823
L 155.386337 36.008396
L 157.095137 30.4542
L 158.803937 25.630633
L 160.370336 21.800691
L 161.651936 19.160845
L 162.791136 17.259585
L 163.930336 15.782201
L 165.069536 14.691123
L 166.066336 14.03907
L 166.920736 13.722207
L 167.775135 13.655023
L 168.487135 13.802525
L 169.341535 14.223291
L 170.195935 14.89384
L 171.192735 15.964166
L 172.331935 17.553104
L 173.471135 19.558894
L 174.610335 22.017491
L 175.891935 25.313899
L 177.458334 30.004955
L 179.167134 35.878772
L 180.875934 42.586769
L 182.869534 51.37971
L 185.290333 63.132624
L 187.853533 76.763344
L 191.555933 97.8432
L 202.947931 163.825286
L 205.938331 179.279865
L 208.501531 191.418476
L 210.92233 201.840471
L 213.20073 210.680162
L 215.33673 218.085969
L 217.33033 224.248415
L 219.323929 229.701406
L 221.175129 234.155166
L 223.026329 238.0603
L 224.877529 241.451255
L 226.728728 244.367573
L 228.579928 246.855054
L 230.431128 248.956476
L 232.282328 250.714339
L 234.133528 252.171992
L 236.127127 253.451427
L 238.120727 254.474435
L 240.399127 255.384094
L 242.819926 256.106067
L 245.525526 256.682815
L 248.800726 257.144106
L 252.787925 257.472353
L 258.341525 257.687308
L 267.597523 257.789561
L 283.831122 257.807064
L 283.831122 257.807064
" clip-path="url(#p753437d82a)" style="fill: none; stroke: #0075dc; stroke-width: 1.2; stroke-linecap: square"/>
   </g>
   <g id="patch_3">
    <path d="M 14.844674 270.015019
L 14.844674 1.44
" style="fill: none; stroke: #000000; stroke-width: 0.8; stroke-linejoin: miter; stroke-linecap: square"/>
   </g>
   <g id="patch_4">
    <path d="M 296.64 270.015019
L 296.64 1.44
" style="fill: none; stroke: #000000; stroke-width: 0.8; stroke-linejoin: miter; stroke-linecap: square"/>
   </g>
   <g id="patch_5">
    <path d="M 14.844674 270.015019
L 296.64 270.015019
" style="fill: none; stroke: #000000; stroke-width: 0.8; stroke-linejoin: miter; stroke-linecap: square"/>
   </g>
   <g id="patch_6">
    <path d="M 14.844674 1.44
L 296.64 1.44
" style="fill: none; stroke: #000000; stroke-width: 0.8; stroke-linejoin: miter; stroke-linecap: square"/>
   </g>
  </g>
 </g>
 <defs>
  <clipPath id="p753437d82a">
   <rect x="14.844674" y="1.44" width="281.795326" height="268.575019"/>
  </clipPath>
 </defs>
</svg>
