<?xml version="1.0" encoding="utf-8" standalone="no"?>
<!DOCTYPE svg PUBLIC "-//W3C//DTD SVG 1.1//EN"
  "http://www.w3.org/Graphics/SVG/1.1/DTD/svg11.dtd">
<svg xmlns:xlink="http://www.w3.org/1999/xlink" width="218.88pt" height="161.28pt" viewBox="0 0 218.88 161.28" xmlns="http://www.w3.org/2000/svg" version="1.1">
 <metadata>
  <rdf:RDF xmlns:dc="http://purl.org/dc/elements/1.1/" xmlns:cc="http://creativecommons.org/ns#" xmlns:rdf="http://www.w3.org/1999/02/22-rdf-syntax-ns#">
   <cc:Work>
    <dc:type rdf:resource="http://purl.org/dc/dcmitype/StillImage"/>
    <dc:date>2026-06-06T12:24:59.296413</dc:date>
    <dc:format>image/svg+xml</dc:format>
    <dc:creator>
     <cc:Agent>
      <dc:title>Matplotlib v3.10.9, https://matplotlib.org/</dc:title>
     </cc:Agent>
    </dc:creator>
   </cc:Work>
  </rdf:RDF>
 </metadata>
 <defs>
  <style type="text/css">*{stroke-linejoin: round; stroke-linecap: butt}</style>
 </defs>
 <g id="figure_1">
  <g id="patch_1">
   <path d="M 0 161.28
L 218.88 161.28
L 218.88 0
L 0 0
z
" style="fill: #ffffff"/>
  </g>
  <g id="axes_1">
   <g id="patch_2">
    <path d="M 35.462168 133.399387
L 217.44 133.399387
L 217.44 1.44
L 35.462168 1.44
z
" style="fill: #ffffff"/>
   </g>
   <g id="matplotlib.axis_1">
    <g id="xtick_1">
     <g id="line2d_1">
      <defs>
       <path id="m98eee59f37" d="M 0 0
L 0 -4
" style="stroke: #000000; stroke-width: 0.8"/>
      </defs>
      <g>
       <use xlink:href="#m98eee59f37" x="43.477002" y="133.399387" style="stroke: #000000; stroke-width: 0.8"/>
      </g>
     </g>
     <g id="line2d_2">
      <defs>
       <path id="m8314dc1c98" d="M 0 0
L 0 4
" style="stroke: #000000; stroke-width: 0.8"/>
      </defs>
      <g>
       <use xlink:href="#m8314dc1c98" x="43.477002" y="1.44" style="stroke: #000000; stroke-width: 0.8"/>
      </g>
     </g>
     <g id="text_1">
      <!-- $\mathdefault{0}$ -->
      <g transform="translate(40.707419 144.497707) scale(0.1 -0.1)">
       <defs>
        <path id="NimbusSanL-Regu-30" d="M 1760 4544
C 1338 4544 954 4360 717 4046
C 422 3651 275 3044 275 2208
C 275 683 787 -128 1760 -128
C 2720 -128 3245 683 3245 2170
C 3245 3050 3104 3638 2803 4046
C 2566 4366 2189 4544 1760 4544
z
M 1760 4044
C 2368 4044 2669 3432 2669 2221
C 2669 939 2374 340 1747 340
C 1152 340 851 965 851 2202
C 851 3438 1152 4044 1760 4044
z
" transform="scale(0.015625)"/>
       </defs>
       <use xlink:href="#NimbusSanL-Regu-30" transform="scale(0.996264)"/>
      </g>
     </g>
    </g>
    <g id="xtick_2">
     <g id="line2d_3">
      <g>
       <use xlink:href="#m98eee59f37" x="94.854142" y="133.399387" style="stroke: #000000; stroke-width: 0.8"/>
      </g>
     </g>
     <g id="line2d_4">
      <g>
       <use xlink:href="#m8314dc1c98" x="94.854142" y="1.44" style="stroke: #000000; stroke-width: 0.8"/>
      </g>
     </g>
     <g id="text_2">
      <!-- $\mathdefault{200}$ -->
      <g transform="translate(86.545395 144.497707) scale(0.1 -0.1)">
       <defs>
        <path id="NimbusSanL-Regu-32" d="M 3238 558
L 851 558
C 909 930 1114 1167 1670 1494
L 2310 1840
C 2944 2186 3270 2653 3270 3211
C 3270 3589 3117 3942 2848 4185
C 2579 4429 2246 4544 1818 4544
C 1242 4544 813 4339 563 3955
C 403 3711 333 3429 320 2967
L 883 2967
C 902 3275 941 3461 1018 3608
C 1165 3884 1459 4051 1798 4051
C 2310 4051 2694 3685 2694 3198
C 2694 2839 2483 2531 2080 2301
L 1491 1968
C 544 1430 269 1000 218 0
L 3238 0
L 3238 558
z
" transform="scale(0.015625)"/>
       </defs>
       <use xlink:href="#NimbusSanL-Regu-32" transform="scale(0.996264)"/>
       <use xlink:href="#NimbusSanL-Regu-30" transform="translate(55.391677 0) scale(0.996264)"/>
       <use xlink:href="#NimbusSanL-Regu-30" transform="translate(110.783354 0) scale(0.996264)"/>
      </g>
     </g>
    </g>
    <g id="xtick_3">
     <g id="line2d_5">
      <g>
       <use xlink:href="#m98eee59f37" x="146.231283" y="133.399387" style="stroke: #000000; stroke-width: 0.8"/>
      </g>
     </g>
     <g id="line2d_6">
      <g>
       <use xlink:href="#m8314dc1c98" x="146.231283" y="1.44" style="stroke: #000000; stroke-width: 0.8"/>
      </g>
     </g>
     <g id="text_3">
      <!-- $\mathdefault{400}$ -->
      <g transform="translate(137.922536 144.497707) scale(0.1 -0.1)">
       <defs>
        <path id="NimbusSanL-Regu-34" d="M 2093 1088
L 2093 0
L 2656 0
L 2656 1088
L 3328 1088
L 3328 1594
L 2656 1594
L 2656 4545
L 2240 4545
L 179 1684
L 179 1088
L 2093 1088
z
M 2093 1594
L 672 1594
L 2093 3583
L 2093 1594
z
" transform="scale(0.015625)"/>
       </defs>
       <use xlink:href="#NimbusSanL-Regu-34" transform="scale(0.996264)"/>
       <use xlink:href="#NimbusSanL-Regu-30" transform="translate(55.391677 0) scale(0.996264)"/>
       <use xlink:href="#NimbusSanL-Regu-30" transform="translate(110.783354 0) scale(0.996264)"/>
      </g>
     </g>
    </g>
    <g id="xtick_4">
     <g id="line2d_7">
      <g>
       <use xlink:href="#m98eee59f37" x="197.608424" y="133.399387" style="stroke: #000000; stroke-width: 0.8"/>
      </g>
     </g>
     <g id="line2d_8">
      <g>
       <use xlink:href="#m8314dc1c98" x="197.608424" y="1.44" style="stroke: #000000; stroke-width: 0.8"/>
      </g>
     </g>
     <g id="text_4">
      <!-- $\mathdefault{600}$ -->
      <g transform="translate(189.299677 144.497707) scale(0.1 -0.1)">
       <defs>
        <path id="NimbusSanL-Regu-36" d="M 3187 3382
C 3078 4111 2592 4544 1901 4544
C 1402 4544 954 4302 685 3900
C 403 3460 275 2904 275 2081
C 275 1321 390 836 659 434
C 902 69 1299 -128 1798 -128
C 2662 -128 3283 518 3283 1415
C 3283 2268 2707 2868 1894 2868
C 1446 2868 1094 2695 851 2362
C 858 3444 1216 4044 1862 4044
C 2259 4044 2534 3803 2624 3382
L 3187 3382
z
M 1824 2368
C 2368 2368 2707 1986 2707 1370
C 2707 793 2323 372 1805 372
C 1280 372 883 813 883 1402
C 883 1973 1267 2368 1824 2368
z
" transform="scale(0.015625)"/>
       </defs>
       <use xlink:href="#NimbusSanL-Regu-36" transform="scale(0.996264)"/>
       <use xlink:href="#NimbusSanL-Regu-30" transform="translate(55.391677 0) scale(0.996264)"/>
       <use xlink:href="#NimbusSanL-Regu-30" transform="translate(110.783354 0) scale(0.996264)"/>
      </g>
     </g>
    </g>
    <g id="xtick_5">
     <g id="line2d_9">
      <defs>
       <path id="m6f52ce7b0a" d="M 0 0
L 0 -2
" style="stroke: #000000; stroke-width: 0.6"/>
      </defs>
      <g>
       <use xlink:href="#m6f52ce7b0a" x="56.321287" y="133.399387" style="stroke: #000000; stroke-width: 0.6"/>
      </g>
     </g>
     <g id="line2d_10">
      <defs>
       <path id="m0787da80da" d="M 0 0
L 0 2
" style="stroke: #000000; stroke-width: 0.6"/>
      </defs>
      <g>
       <use xlink:href="#m0787da80da" x="56.321287" y="1.44" style="stroke: #000000; stroke-width: 0.6"/>
      </g>
     </g>
    </g>
    <g id="xtick_6">
     <g id="line2d_11">
      <g>
       <use xlink:href="#m6f52ce7b0a" x="69.165572" y="133.399387" style="stroke: #000000; stroke-width: 0.6"/>
      </g>
     </g>
     <g id="line2d_12">
      <g>
       <use xlink:href="#m0787da80da" x="69.165572" y="1.44" style="stroke: #000000; stroke-width: 0.6"/>
      </g>
     </g>
    </g>
    <g id="xtick_7">
     <g id="line2d_13">
      <g>
       <use xlink:href="#m6f52ce7b0a" x="82.009857" y="133.399387" style="stroke: #000000; stroke-width: 0.6"/>
      </g>
     </g>
     <g id="line2d_14">
      <g>
       <use xlink:href="#m0787da80da" x="82.009857" y="1.44" style="stroke: #000000; stroke-width: 0.6"/>
      </g>
     </g>
    </g>
    <g id="xtick_8">
     <g id="line2d_15">
      <g>
       <use xlink:href="#m6f52ce7b0a" x="107.698428" y="133.399387" style="stroke: #000000; stroke-width: 0.6"/>
      </g>
     </g>
     <g id="line2d_16">
      <g>
       <use xlink:href="#m0787da80da" x="107.698428" y="1.44" style="stroke: #000000; stroke-width: 0.6"/>
      </g>
     </g>
    </g>
    <g id="xtick_9">
     <g id="line2d_17">
      <g>
       <use xlink:href="#m6f52ce7b0a" x="120.542713" y="133.399387" style="stroke: #000000; stroke-width: 0.6"/>
      </g>
     </g>
     <g id="line2d_18">
      <g>
       <use xlink:href="#m0787da80da" x="120.542713" y="1.44" style="stroke: #000000; stroke-width: 0.6"/>
      </g>
     </g>
    </g>
    <g id="xtick_10">
     <g id="line2d_19">
      <g>
       <use xlink:href="#m6f52ce7b0a" x="133.386998" y="133.399387" style="stroke: #000000; stroke-width: 0.6"/>
      </g>
     </g>
     <g id="line2d_20">
      <g>
       <use xlink:href="#m0787da80da" x="133.386998" y="1.44" style="stroke: #000000; stroke-width: 0.6"/>
      </g>
     </g>
    </g>
    <g id="xtick_11">
     <g id="line2d_21">
      <g>
       <use xlink:href="#m6f52ce7b0a" x="159.075568" y="133.399387" style="stroke: #000000; stroke-width: 0.6"/>
      </g>
     </g>
     <g id="line2d_22">
      <g>
       <use xlink:href="#m0787da80da" x="159.075568" y="1.44" style="stroke: #000000; stroke-width: 0.6"/>
      </g>
     </g>
    </g>
    <g id="xtick_12">
     <g id="line2d_23">
      <g>
       <use xlink:href="#m6f52ce7b0a" x="171.919853" y="133.399387" style="stroke: #000000; stroke-width: 0.6"/>
      </g>
     </g>
     <g id="line2d_24">
      <g>
       <use xlink:href="#m0787da80da" x="171.919853" y="1.44" style="stroke: #000000; stroke-width: 0.6"/>
      </g>
     </g>
    </g>
    <g id="xtick_13">
     <g id="line2d_25">
      <g>
       <use xlink:href="#m6f52ce7b0a" x="184.764139" y="133.399387" style="stroke: #000000; stroke-width: 0.6"/>
      </g>
     </g>
     <g id="line2d_26">
      <g>
       <use xlink:href="#m0787da80da" x="184.764139" y="1.44" style="stroke: #000000; stroke-width: 0.6"/>
      </g>
     </g>
    </g>
    <g id="xtick_14">
     <g id="line2d_27">
      <g>
       <use xlink:href="#m6f52ce7b0a" x="210.452709" y="133.399387" style="stroke: #000000; stroke-width: 0.6"/>
      </g>
     </g>
     <g id="line2d_28">
      <g>
       <use xlink:href="#m0787da80da" x="210.452709" y="1.44" style="stroke: #000000; stroke-width: 0.6"/>
      </g>
     </g>
    </g>
    <g id="text_5">
     <!-- Phonon Mode Index -->
     <g transform="translate(82.01825 157.718014) scale(0.1 -0.1)">
      <defs>
       <path id="NimbusSanL-Regu-50" d="M 1178 1984
L 2643 1984
C 3008 1984 3296 2093 3546 2316
C 3827 2573 3949 2873 3949 3303
C 3949 4179 3430 4672 2509 4672
L 582 4672
L 582 -14
L 1178 -14
L 1178 1984
z
M 1178 2510
L 1178 4146
L 2419 4146
C 2989 4146 3328 3839 3328 3327
C 3328 2816 2989 2510 2419 2510
L 1178 2510
z
" transform="scale(0.015625)"/>
       <path id="NimbusSanL-Regu-68" d="M 448 4672
L 448 -2
L 979 -2
L 979 1852
C 979 2539 1338 2988 1888 2988
C 2061 2988 2234 2930 2362 2834
C 2515 2725 2579 2564 2579 2327
L 2579 -2
L 3110 -2
L 3110 2538
C 3110 3103 2707 3456 2054 3456
C 1581 3456 1293 3308 979 2898
L 979 4672
L 448 4672
z
" transform="scale(0.015625)"/>
       <path id="NimbusSanL-Regu-6f" d="M 1741 3456
C 800 3456 230 2786 230 1663
C 230 541 794 -128 1747 -128
C 2688 -128 3264 541 3264 1638
C 3264 2792 2707 3456 1741 3456
z
M 1747 2962
C 2349 2962 2707 2472 2707 1645
C 2707 861 2336 365 1747 365
C 1152 365 787 855 787 1663
C 787 2466 1152 2962 1747 2962
z
" transform="scale(0.015625)"/>
       <path id="NimbusSanL-Regu-6e" d="M 448 3359
L 448 0
L 986 0
L 986 1853
C 986 2539 1344 2988 1894 2988
C 2317 2988 2586 2731 2586 2327
L 2586 0
L 3117 0
L 3117 2539
C 3117 3097 2701 3456 2054 3456
C 1555 3456 1235 3263 941 2796
L 941 3359
L 448 3359
z
" transform="scale(0.015625)"/>
       <path id="NimbusSanL-Regu-4d" d="M 2995 -2
L 4307 3915
L 4307 -2
L 4870 -2
L 4870 4672
L 4045 4672
L 2688 601
L 1306 4672
L 480 4672
L 480 -2
L 1043 -2
L 1043 3915
L 2368 -2
L 2995 -2
z
" transform="scale(0.015625)"/>
       <path id="NimbusSanL-Regu-64" d="M 3168 4672
L 2637 4672
L 2637 2937
C 2413 3276 2054 3456 1606 3456
C 736 3456 166 2761 166 1695
C 166 566 723 -128 1626 -128
C 2086 -128 2406 45 2694 461
L 2694 -2
L 3168 -2
L 3168 4672
z
M 1696 2956
C 2272 2956 2637 2447 2637 1651
C 2637 881 2266 372 1702 372
C 1114 372 723 887 723 1664
C 723 2440 1114 2956 1696 2956
z
" transform="scale(0.015625)"/>
       <path id="NimbusSanL-Regu-65" d="M 3283 1529
C 3283 2034 3245 2338 3149 2584
C 2931 3127 2419 3456 1792 3456
C 858 3456 256 2742 256 1645
C 256 547 838 -128 1779 -128
C 2547 -128 3078 310 3213 1044
L 2675 1044
C 2528 598 2227 365 1798 365
C 1459 365 1171 520 992 805
C 864 998 819 1193 813 1529
L 3283 1529
z
M 826 1984
C 870 2577 1248 2962 1786 2962
C 2310 2962 2714 2530 2714 1984
C 2714 1984 2714 1984 2707 1984
L 826 1984
z
" transform="scale(0.015625)"/>
       <path id="NimbusSanL-Regu-49" d="M 1242 4672
L 640 4672
L 640 -2
L 1242 -2
L 1242 4672
z
" transform="scale(0.015625)"/>
       <path id="NimbusSanL-Regu-78" d="M 1869 1737
L 2995 3359
L 2394 3359
L 1587 2141
L 781 3359
L 173 3359
L 1293 1712
L 109 0
L 717 0
L 1568 1288
L 2406 0
L 3027 0
L 1869 1737
z
" transform="scale(0.015625)"/>
      </defs>
      <use xlink:href="#NimbusSanL-Regu-50" transform="scale(0.996264)"/>
      <use xlink:href="#NimbusSanL-Regu-68" transform="translate(66.450031 0) scale(0.996264)"/>
      <use xlink:href="#NimbusSanL-Regu-6f" transform="translate(121.841708 0) scale(0.996264)"/>
      <use xlink:href="#NimbusSanL-Regu-6e" transform="translate(177.233385 0) scale(0.996264)"/>
      <use xlink:href="#NimbusSanL-Regu-6f" transform="translate(232.625062 0) scale(0.996264)"/>
      <use xlink:href="#NimbusSanL-Regu-6e" transform="translate(288.016739 0) scale(0.996264)"/>
      <use xlink:href="#NimbusSanL-Regu-4d" transform="translate(371.103586 0) scale(0.996264)"/>
      <use xlink:href="#NimbusSanL-Regu-6f" transform="translate(454.092016 0) scale(0.996264)"/>
      <use xlink:href="#NimbusSanL-Regu-64" transform="translate(509.483693 0) scale(0.996264)"/>
      <use xlink:href="#NimbusSanL-Regu-65" transform="translate(564.87537 0) scale(0.996264)"/>
      <use xlink:href="#NimbusSanL-Regu-49" transform="translate(647.962216 0) scale(0.996264)"/>
      <use xlink:href="#NimbusSanL-Regu-6e" transform="translate(675.657386 0) scale(0.996264)"/>
      <use xlink:href="#NimbusSanL-Regu-64" transform="translate(731.049063 0) scale(0.996264)"/>
      <use xlink:href="#NimbusSanL-Regu-65" transform="translate(786.44074 0) scale(0.996264)"/>
      <use xlink:href="#NimbusSanL-Regu-78" transform="translate(838.844309 0) scale(0.996264)"/>
     </g>
    </g>
   </g>
   <g id="matplotlib.axis_2">
    <g id="ytick_1">
     <g id="line2d_29">
      <defs>
       <path id="m06a4e1405f" d="M 0 0
L 4 0
" style="stroke: #000000; stroke-width: 0.8"/>
      </defs>
      <g>
       <use xlink:href="#m06a4e1405f" x="35.462168" y="127.401233" style="stroke: #000000; stroke-width: 0.8"/>
      </g>
     </g>
     <g id="line2d_30">
      <defs>
       <path id="mff81e1d2e3" d="M 0 0
L -4 0
" style="stroke: #000000; stroke-width: 0.8"/>
      </defs>
      <g>
       <use xlink:href="#mff81e1d2e3" x="217.44" y="127.401233" style="stroke: #000000; stroke-width: 0.8"/>
      </g>
     </g>
     <g id="text_6">
      <!-- $\mathdefault{0}$ -->
      <g transform="translate(25.923003 130.950393) scale(0.1 -0.1)">
       <use xlink:href="#NimbusSanL-Regu-30" transform="scale(0.996264)"/>
      </g>
     </g>
    </g>
    <g id="ytick_2">
     <g id="line2d_31">
      <g>
       <use xlink:href="#m06a4e1405f" x="35.462168" y="90.845008" style="stroke: #000000; stroke-width: 0.8"/>
      </g>
     </g>
     <g id="line2d_32">
      <g>
       <use xlink:href="#mff81e1d2e3" x="217.44" y="90.845008" style="stroke: #000000; stroke-width: 0.8"/>
      </g>
     </g>
     <g id="text_7">
      <!-- $\mathdefault{50}$ -->
      <g transform="translate(20.383839 94.394168) scale(0.1 -0.1)">
       <defs>
        <path id="NimbusSanL-Regu-35" d="M 3046 4544
L 704 4544
L 365 2086
L 883 2086
C 1146 2399 1363 2508 1715 2508
C 2323 2508 2707 2092 2707 1421
C 2707 768 2330 372 1715 372
C 1222 372 922 621 787 1133
L 224 1133
C 301 762 365 582 499 415
C 755 70 1216 -128 1728 -128
C 2643 -128 3283 537 3283 1497
C 3283 2394 2688 3008 1818 3008
C 1498 3008 1242 2925 979 2732
L 1158 3987
L 3046 3987
L 3046 4544
z
" transform="scale(0.015625)"/>
       </defs>
       <use xlink:href="#NimbusSanL-Regu-35" transform="scale(0.996264)"/>
       <use xlink:href="#NimbusSanL-Regu-30" transform="translate(55.391677 0) scale(0.996264)"/>
      </g>
     </g>
    </g>
    <g id="ytick_3">
     <g id="line2d_33">
      <g>
       <use xlink:href="#m06a4e1405f" x="35.462168" y="54.288783" style="stroke: #000000; stroke-width: 0.8"/>
      </g>
     </g>
     <g id="line2d_34">
      <g>
       <use xlink:href="#mff81e1d2e3" x="217.44" y="54.288783" style="stroke: #000000; stroke-width: 0.8"/>
      </g>
     </g>
     <g id="text_8">
      <!-- $\mathdefault{100}$ -->
      <g transform="translate(14.844674 57.837943) scale(0.1 -0.1)">
       <defs>
        <path id="NimbusSanL-Regu-31" d="M 1658 3238
L 1658 0
L 2221 0
L 2221 4545
L 1850 4545
C 1651 3847 1523 3751 653 3642
L 653 3238
L 1658 3238
z
" transform="scale(0.015625)"/>
       </defs>
       <use xlink:href="#NimbusSanL-Regu-31" transform="scale(0.996264)"/>
       <use xlink:href="#NimbusSanL-Regu-30" transform="translate(55.391677 0) scale(0.996264)"/>
       <use xlink:href="#NimbusSanL-Regu-30" transform="translate(110.783354 0) scale(0.996264)"/>
      </g>
     </g>
    </g>
    <g id="ytick_4">
     <g id="line2d_35">
      <g>
       <use xlink:href="#m06a4e1405f" x="35.462168" y="17.732558" style="stroke: #000000; stroke-width: 0.8"/>
      </g>
     </g>
     <g id="line2d_36">
      <g>
       <use xlink:href="#mff81e1d2e3" x="217.44" y="17.732558" style="stroke: #000000; stroke-width: 0.8"/>
      </g>
     </g>
     <g id="text_9">
      <!-- $\mathdefault{150}$ -->
      <g transform="translate(14.844674 21.281718) scale(0.1 -0.1)">
       <use xlink:href="#NimbusSanL-Regu-31" transform="scale(0.996264)"/>
       <use xlink:href="#NimbusSanL-Regu-35" transform="translate(55.391677 0) scale(0.996264)"/>
       <use xlink:href="#NimbusSanL-Regu-30" transform="translate(110.783354 0) scale(0.996264)"/>
      </g>
     </g>
    </g>
    <g id="ytick_5">
     <g id="line2d_37">
      <defs>
       <path id="m7a55e944e9" d="M 0 0
L 2 0
" style="stroke: #000000; stroke-width: 0.6"/>
      </defs>
      <g>
       <use xlink:href="#m7a55e944e9" x="35.462168" y="120.089988" style="stroke: #000000; stroke-width: 0.6"/>
      </g>
     </g>
     <g id="line2d_38">
      <defs>
       <path id="m31c806b37e" d="M 0 0
L -2 0
" style="stroke: #000000; stroke-width: 0.6"/>
      </defs>
      <g>
       <use xlink:href="#m31c806b37e" x="217.44" y="120.089988" style="stroke: #000000; stroke-width: 0.6"/>
      </g>
     </g>
    </g>
    <g id="ytick_6">
     <g id="line2d_39">
      <g>
       <use xlink:href="#m7a55e944e9" x="35.462168" y="112.778743" style="stroke: #000000; stroke-width: 0.6"/>
      </g>
     </g>
     <g id="line2d_40">
      <g>
       <use xlink:href="#m31c806b37e" x="217.44" y="112.778743" style="stroke: #000000; stroke-width: 0.6"/>
      </g>
     </g>
    </g>
    <g id="ytick_7">
     <g id="line2d_41">
      <g>
       <use xlink:href="#m7a55e944e9" x="35.462168" y="105.467498" style="stroke: #000000; stroke-width: 0.6"/>
      </g>
     </g>
     <g id="line2d_42">
      <g>
       <use xlink:href="#m31c806b37e" x="217.44" y="105.467498" style="stroke: #000000; stroke-width: 0.6"/>
      </g>
     </g>
    </g>
    <g id="ytick_8">
     <g id="line2d_43">
      <g>
       <use xlink:href="#m7a55e944e9" x="35.462168" y="98.156253" style="stroke: #000000; stroke-width: 0.6"/>
      </g>
     </g>
     <g id="line2d_44">
      <g>
       <use xlink:href="#m31c806b37e" x="217.44" y="98.156253" style="stroke: #000000; stroke-width: 0.6"/>
      </g>
     </g>
    </g>
    <g id="ytick_9">
     <g id="line2d_45">
      <g>
       <use xlink:href="#m7a55e944e9" x="35.462168" y="83.533763" style="stroke: #000000; stroke-width: 0.6"/>
      </g>
     </g>
     <g id="line2d_46">
      <g>
       <use xlink:href="#m31c806b37e" x="217.44" y="83.533763" style="stroke: #000000; stroke-width: 0.6"/>
      </g>
     </g>
    </g>
    <g id="ytick_10">
     <g id="line2d_47">
      <g>
       <use xlink:href="#m7a55e944e9" x="35.462168" y="76.222518" style="stroke: #000000; stroke-width: 0.6"/>
      </g>
     </g>
     <g id="line2d_48">
      <g>
       <use xlink:href="#m31c806b37e" x="217.44" y="76.222518" style="stroke: #000000; stroke-width: 0.6"/>
      </g>
     </g>
    </g>
    <g id="ytick_11">
     <g id="line2d_49">
      <g>
       <use xlink:href="#m7a55e944e9" x="35.462168" y="68.911273" style="stroke: #000000; stroke-width: 0.6"/>
      </g>
     </g>
     <g id="line2d_50">
      <g>
       <use xlink:href="#m31c806b37e" x="217.44" y="68.911273" style="stroke: #000000; stroke-width: 0.6"/>
      </g>
     </g>
    </g>
    <g id="ytick_12">
     <g id="line2d_51">
      <g>
       <use xlink:href="#m7a55e944e9" x="35.462168" y="61.600028" style="stroke: #000000; stroke-width: 0.6"/>
      </g>
     </g>
     <g id="line2d_52">
      <g>
       <use xlink:href="#m31c806b37e" x="217.44" y="61.600028" style="stroke: #000000; stroke-width: 0.6"/>
      </g>
     </g>
    </g>
    <g id="ytick_13">
     <g id="line2d_53">
      <g>
       <use xlink:href="#m7a55e944e9" x="35.462168" y="46.977538" style="stroke: #000000; stroke-width: 0.6"/>
      </g>
     </g>
     <g id="line2d_54">
      <g>
       <use xlink:href="#m31c806b37e" x="217.44" y="46.977538" style="stroke: #000000; stroke-width: 0.6"/>
      </g>
     </g>
    </g>
    <g id="ytick_14">
     <g id="line2d_55">
      <g>
       <use xlink:href="#m7a55e944e9" x="35.462168" y="39.666293" style="stroke: #000000; stroke-width: 0.6"/>
      </g>
     </g>
     <g id="line2d_56">
      <g>
       <use xlink:href="#m31c806b37e" x="217.44" y="39.666293" style="stroke: #000000; stroke-width: 0.6"/>
      </g>
     </g>
    </g>
    <g id="ytick_15">
     <g id="line2d_57">
      <g>
       <use xlink:href="#m7a55e944e9" x="35.462168" y="32.355048" style="stroke: #000000; stroke-width: 0.6"/>
      </g>
     </g>
     <g id="line2d_58">
      <g>
       <use xlink:href="#m31c806b37e" x="217.44" y="32.355048" style="stroke: #000000; stroke-width: 0.6"/>
      </g>
     </g>
    </g>
    <g id="ytick_16">
     <g id="line2d_59">
      <g>
       <use xlink:href="#m7a55e944e9" x="35.462168" y="25.043803" style="stroke: #000000; stroke-width: 0.6"/>
      </g>
     </g>
     <g id="line2d_60">
      <g>
       <use xlink:href="#m31c806b37e" x="217.44" y="25.043803" style="stroke: #000000; stroke-width: 0.6"/>
      </g>
     </g>
    </g>
    <g id="ytick_17">
     <g id="line2d_61">
      <g>
       <use xlink:href="#m7a55e944e9" x="35.462168" y="10.421313" style="stroke: #000000; stroke-width: 0.6"/>
      </g>
     </g>
     <g id="line2d_62">
      <g>
       <use xlink:href="#m31c806b37e" x="217.44" y="10.421313" style="stroke: #000000; stroke-width: 0.6"/>
      </g>
     </g>
    </g>
    <g id="ytick_18">
     <g id="line2d_63">
      <g>
       <use xlink:href="#m7a55e944e9" x="35.462168" y="3.110068" style="stroke: #000000; stroke-width: 0.6"/>
      </g>
     </g>
     <g id="line2d_64">
      <g>
       <use xlink:href="#m31c806b37e" x="217.44" y="3.110068" style="stroke: #000000; stroke-width: 0.6"/>
      </g>
     </g>
    </g>
    <g id="text_10">
     <!-- Phonon Energy (meV) -->
     <g transform="translate(8.722687 116.699296) rotate(-90) scale(0.1 -0.1)">
      <defs>
       <path id="NimbusSanL-Regu-45" d="M 1171 2112
L 3712 2112
L 3712 2638
L 1171 2638
L 1171 4146
L 3808 4146
L 3808 4672
L 576 4672
L 576 0
L 3923 0
L 3923 526
L 1171 526
L 1171 2112
z
" transform="scale(0.015625)"/>
       <path id="NimbusSanL-Regu-72" d="M 442 3359
L 442 0
L 979 0
L 979 1741
C 979 2221 1101 2535 1357 2720
C 1523 2842 1683 2880 2054 2880
L 2054 3432
C 1965 3444 1920 3444 1850 3444
C 1504 3444 1242 3240 934 2746
L 934 3359
L 442 3359
z
" transform="scale(0.015625)"/>
       <path id="NimbusSanL-Regu-67" d="M 2637 3341
L 2637 2854
C 2368 3252 2042 3438 1613 3438
C 762 3438 186 2692 186 1600
C 186 1048 333 598 608 276
C 858 -7 1216 -173 1568 -173
C 1990 -173 2285 6 2586 429
L 2586 258
C 2586 -192 2528 -465 2394 -649
C 2253 -844 1978 -959 1651 -959
C 1408 -959 1190 -896 1043 -783
C 922 -688 870 -600 838 -406
L 294 -406
C 352 -1033 845 -1408 1632 -1408
C 2131 -1408 2560 -1247 2778 -979
C 3034 -671 3130 -249 3130 538
L 3130 3341
L 2637 3341
z
M 1670 2944
C 2246 2944 2586 2455 2586 1613
C 2586 808 2240 320 1677 320
C 1094 320 742 816 742 1632
C 742 2442 1101 2944 1670 2944
z
" transform="scale(0.015625)"/>
       <path id="NimbusSanL-Regu-79" d="M 2483 3360
L 1555 738
L 698 3360
L 128 3360
L 1261 -21
L 1056 -554
C 973 -792 851 -882 627 -882
C 550 -882 461 -869 346 -843
L 346 -1325
C 454 -1382 563 -1408 704 -1408
C 877 -1408 1062 -1350 1203 -1247
C 1370 -1125 1466 -983 1568 -713
L 3059 3360
L 2483 3360
z
" transform="scale(0.015625)"/>
       <path id="NimbusSanL-Regu-28" d="M 1510 4672
C 870 3830 467 2660 467 1651
C 467 636 870 -534 1510 -1376
L 1862 -1376
C 1299 -457 986 623 986 1651
C 986 2673 1299 3759 1862 4672
L 1510 4672
z
" transform="scale(0.015625)"/>
       <path id="NimbusSanL-Regu-6d" d="M 448 3359
L 448 0
L 986 0
L 986 2109
C 986 2597 1338 2988 1773 2988
C 2170 2988 2394 2744 2394 2314
L 2394 0
L 2931 0
L 2931 2109
C 2931 2597 3283 2988 3718 2988
C 4109 2988 4339 2738 4339 2314
L 4339 0
L 4877 0
L 4877 2520
C 4877 3122 4531 3456 3904 3456
C 3456 3456 3187 3321 2874 2943
C 2675 3302 2406 3456 1971 3456
C 1523 3456 1229 3289 941 2885
L 941 3359
L 448 3359
z
" transform="scale(0.015625)"/>
       <path id="NimbusSanL-Regu-56" d="M 2509 0
L 4128 4672
L 3494 4672
L 2202 718
L 832 4672
L 192 4672
L 1869 0
L 2509 0
z
" transform="scale(0.015625)"/>
       <path id="NimbusSanL-Regu-29" d="M 595 -1376
C 1235 -534 1638 636 1638 1644
C 1638 2660 1235 3830 595 4672
L 243 4672
C 806 3753 1120 2673 1120 1644
C 1120 623 806 -464 243 -1376
L 595 -1376
z
" transform="scale(0.015625)"/>
      </defs>
      <use xlink:href="#NimbusSanL-Regu-50" transform="scale(0.996264)"/>
      <use xlink:href="#NimbusSanL-Regu-68" transform="translate(66.450031 0) scale(0.996264)"/>
      <use xlink:href="#NimbusSanL-Regu-6f" transform="translate(121.841708 0) scale(0.996264)"/>
      <use xlink:href="#NimbusSanL-Regu-6e" transform="translate(177.233385 0) scale(0.996264)"/>
      <use xlink:href="#NimbusSanL-Regu-6f" transform="translate(232.625062 0) scale(0.996264)"/>
      <use xlink:href="#NimbusSanL-Regu-6e" transform="translate(288.016739 0) scale(0.996264)"/>
      <use xlink:href="#NimbusSanL-Regu-45" transform="translate(371.103586 0) scale(0.996264)"/>
      <use xlink:href="#NimbusSanL-Regu-6e" transform="translate(437.553617 0) scale(0.996264)"/>
      <use xlink:href="#NimbusSanL-Regu-65" transform="translate(492.945294 0) scale(0.996264)"/>
      <use xlink:href="#NimbusSanL-Regu-72" transform="translate(548.336971 0) scale(0.996264)"/>
      <use xlink:href="#NimbusSanL-Regu-67" transform="translate(581.5122 0) scale(0.996264)"/>
      <use xlink:href="#NimbusSanL-Regu-79" transform="translate(636.903877 0) scale(0.996264)"/>
      <use xlink:href="#NimbusSanL-Regu-28" transform="translate(714.412247 0) scale(0.996264)"/>
      <use xlink:href="#NimbusSanL-Regu-6d" transform="translate(747.587477 0) scale(0.996264)"/>
      <use xlink:href="#NimbusSanL-Regu-65" transform="translate(830.575907 0) scale(0.996264)"/>
      <use xlink:href="#NimbusSanL-Regu-56" transform="translate(885.967584 0) scale(0.996264)"/>
      <use xlink:href="#NimbusSanL-Regu-29" transform="translate(952.417615 0) scale(0.996264)"/>
     </g>
    </g>
   </g>
   <g id="line2d_65">
    <path d="M 43.733887 127.401233
L 44.247659 127.401233
L 44.504545 94.972296
L 44.76143 94.972287
L 45.018316 94.68343
L 45.275202 93.658858
L 45.788973 93.580699
L 46.302745 93.499568
L 46.816516 93.392008
L 47.330287 93.381219
L 47.587173 89.422836
L 47.844059 89.422832
L 48.100944 86.252489
L 49.128487 86.165812
L 49.385373 86.00896
L 50.15603 85.931601
L 50.412916 85.863345
L 50.669801 84.512596
L 50.926687 84.512589
L 51.183573 84.347774
L 51.95423 84.252865
L 52.211116 84.014083
L 52.468001 84.014075
L 52.724887 83.622055
L 54.523087 83.503488
L 54.779973 81.788087
L 55.036858 80.847002
L 55.293744 80.846994
L 55.55063 80.569807
L 56.064401 80.546935
L 56.321287 79.85549
L 56.835058 79.796437
L 57.091944 78.9054
L 58.119487 78.817909
L 58.376373 78.817902
L 58.633258 78.605349
L 58.890144 78.60534
L 59.14703 78.480832
L 59.403915 74.334466
L 59.660801 74.334458
L 59.917687 74.218267
L 60.174572 73.295814
L 60.431458 73.295804
L 60.688344 73.003201
L 60.94523 72.387817
L 61.459001 72.270577
L 61.715887 71.696344
L 62.229658 71.589612
L 65.569172 71.309866
L 65.826058 69.58749
L 66.082944 69.58748
L 66.339829 69.405044
L 66.596715 68.495737
L 66.853601 68.495723
L 67.624258 68.127487
L 68.651801 68.013722
L 68.908686 67.645815
L 69.165572 67.645814
L 69.422458 66.847095
L 69.679344 66.847085
L 69.936229 66.711543
L 70.193115 65.934957
L 70.706886 65.898953
L 70.963772 65.670094
L 71.991315 65.584236
L 72.761972 65.331992
L 73.018858 64.768824
L 73.532629 64.660013
L 75.073943 64.272399
L 76.615258 64.18658
L 81.752972 63.593923
L 82.266743 63.583546
L 82.780514 63.477665
L 83.0374 63.468415
L 83.294286 63.268205
L 83.808057 63.235728
L 84.064943 62.906837
L 85.863143 62.835649
L 86.890686 62.554241
L 87.147571 59.767264
L 87.404457 59.220877
L 87.661343 59.220875
L 87.918228 59.077108
L 88.175114 58.063623
L 88.432 58.06362
L 88.945771 57.900465
L 89.202657 57.900464
L 89.459543 57.738672
L 92.0284 57.475637
L 93.055943 57.365702
L 93.312828 57.039464
L 94.597257 56.930693
L 94.854142 55.179435
L 95.111028 51.149161
L 95.6248 51.072564
L 95.881685 49.752026
L 96.138571 49.752023
L 96.395457 49.39476
L 96.909228 49.337103
L 97.166114 49.126201
L 97.936771 49.037493
L 101.533171 48.729438
L 102.303828 48.12236
L 102.817599 48.021937
L 103.074485 47.844585
L 103.331371 46.172669
L 103.588256 46.172668
L 104.102028 45.919002
L 106.157113 45.577874
L 108.212199 45.441737
L 108.982856 45.045929
L 109.239742 42.884047
L 109.496628 42.387496
L 109.753513 42.387481
L 110.010399 41.979995
L 110.52417 41.865887
L 110.781056 41.496551
L 111.037942 40.269165
L 111.294827 40.269159
L 111.551713 40.088116
L 111.808599 39.74712
L 112.579256 39.646324
L 113.606799 39.561951
L 113.863684 39.402902
L 115.148113 39.281424
L 116.175656 39.060081
L 116.689427 39.046155
L 116.946313 37.431593
L 117.203199 36.787291
L 117.460084 36.787272
L 117.71697 36.433864
L 120.799598 35.879963
L 121.827141 35.799256
L 122.084027 35.767042
L 122.597798 35.509618
L 122.854684 35.509614
L 123.11157 34.838085
L 123.368455 34.622679
L 123.625341 34.622674
L 123.882227 34.435677
L 124.395998 34.353607
L 124.90977 33.941854
L 125.423541 33.8746
L 126.964855 33.399382
L 129.019941 33.057796
L 129.276827 31.691927
L 129.533712 31.691914
L 129.790598 31.401377
L 130.047484 31.298716
L 130.304369 31.022496
L 131.331912 30.753965
L 132.102569 30.724416
L 132.359455 30.025049
L 132.616341 29.797717
L 132.873227 29.797697
L 133.130112 29.256192
L 133.643884 29.242262
L 133.900769 27.493484
L 134.157655 27.260324
L 134.414541 27.260323
L 134.671426 27.074394
L 134.928312 27.074375
L 135.185198 26.496247
L 135.442084 26.272196
L 135.955855 26.208494
L 136.469626 26.014571
L 136.726512 26.014563
L 137.240283 25.657036
L 137.497169 25.657028
L 137.754055 25.370434
L 138.010941 25.370431
L 139.295369 24.544447
L 140.066026 24.425638
L 140.322912 24.282635
L 141.350455 24.224332
L 141.60734 24.098078
L 142.377998 24.000745
L 142.891769 23.911482
L 143.919312 23.716362
L 144.176197 23.29939
L 144.689969 23.205419
L 145.20374 23.185973
L 145.460626 22.919562
L 146.231283 22.844782
L 146.488169 22.378137
L 146.745054 22.378113
L 147.258826 22.106264
L 147.515712 22.106262
L 148.029483 21.807346
L 148.286369 21.807328
L 148.543254 21.498246
L 149.313912 21.281528
L 150.59834 21.239438
L 151.112111 21.15307
L 153.167197 21.046955
L 153.680968 20.93953
L 157.020483 20.692531
L 157.277368 20.433882
L 159.332454 20.132315
L 159.58934 19.816365
L 160.359997 19.75462
L 160.873768 19.471195
L 162.671968 19.363452
L 163.442625 19.066002
L 164.470168 19.00371
L 164.727054 18.771093
L 166.525254 18.466121
L 168.066568 18.262726
L 169.350996 18.100953
L 170.892311 17.844981
L 171.149196 17.654083
L 172.176739 17.549642
L 172.433625 16.829883
L 172.690511 16.674814
L 172.947396 16.674791
L 173.204282 16.481503
L 173.974939 16.418909
L 174.48871 16.333811
L 175.002482 16.288627
L 175.259368 16.021538
L 176.800682 15.903299
L 177.314453 15.766461
L 179.112653 15.675515
L 181.68151 15.445964
L 183.736596 15.246104
L 183.993481 15.114829
L 186.562338 15.013306
L 190.415624 14.664328
L 191.700053 14.567976
L 192.213824 14.472653
L 192.47071 14.472649
L 192.984481 14.294314
L 193.498252 14.28098
L 193.755138 13.890608
L 194.782681 13.802322
L 195.039567 13.600527
L 198.122195 13.033661
L 198.635967 12.995729
L 198.892852 12.849662
L 199.149738 12.84963
L 199.406624 12.603928
L 199.663509 12.103566
L 199.920395 11.969649
L 200.434166 11.894764
L 200.691052 10.619362
L 200.947938 10.61935
L 201.204824 10.401529
L 201.718595 10.368969
L 202.232366 10.113062
L 202.489252 10.113036
L 202.746138 9.986238
L 203.003023 9.986219
L 203.516795 9.589342
L 205.314995 9.378552
L 205.571881 8.780027
L 206.085652 8.691938
L 206.599423 8.53398
L 206.856309 8.533968
L 207.883852 7.970294
L 208.140738 7.805501
L 208.397623 7.80548
L 208.654509 7.679825
L 208.911395 7.679803
L 209.16828 7.438154
L 209.16828 7.438154
" clip-path="url(#pa67c8c43a0)" style="fill: none; stroke: #000000; stroke-width: 1.2; stroke-linecap: square"/>
   </g>
   <g id="patch_3">
    <path d="M 35.462168 133.399387
L 35.462168 1.44
" style="fill: none; stroke: #000000; stroke-width: 0.8; stroke-linejoin: miter; stroke-linecap: square"/>
   </g>
   <g id="patch_4">
    <path d="M 217.44 133.399387
L 217.44 1.44
" style="fill: none; stroke: #000000; stroke-width: 0.8; stroke-linejoin: miter; stroke-linecap: square"/>
   </g>
   <g id="patch_5">
    <path d="M 35.462168 133.399387
L 217.44 133.399387
" style="fill: none; stroke: #000000; stroke-width: 0.8; stroke-linejoin: miter; stroke-linecap: square"/>
   </g>
   <g id="patch_6">
    <path d="M 35.462168 1.44
L 217.44 1.44
" style="fill: none; stroke: #000000; stroke-width: 0.8; stroke-linejoin: miter; stroke-linecap: square"/>
   </g>
  </g>
 </g>
 <defs>
  <clipPath id="pa67c8c43a0">
   <rect x="35.462168" y="1.44" width="181.977832" height="131.959387"/>
  </clipPath>
 </defs>
</svg>
