<?xml version="1.0" encoding="utf-8" standalone="no"?>
<!DOCTYPE svg PUBLIC "-//W3C//DTD SVG 1.1//EN"
  "http://www.w3.org/Graphics/SVG/1.1/DTD/svg11.dtd">
<svg xmlns:xlink="http://www.w3.org/1999/xlink" width="218.88pt" height="161.28pt" viewBox="0 0 218.88 161.28" xmlns="http://www.w3.org/2000/svg" version="1.1">
 <metadata>
  <rdf:RDF xmlns:dc="http://purl.org/dc/elements/1.1/" xmlns:cc="http://creativecommons.org/ns#" xmlns:rdf="http://www.w3.org/1999/02/22-rdf-syntax-ns#">
   <cc:Work>
    <dc:type rdf:resource="http://purl.org/dc/dcmitype/StillImage"/>
    <dc:date>2026-06-06T12:25:06.299881</dc:date>
    <dc:format>image/svg+xml</dc:format>
    <dc:creator>
     <cc:Agent>
      <dc:title>Matplotlib v3.10.9, https://matplotlib.org/</dc:title>
     </cc:Agent>
    </dc:creator>
   </cc:Work>
  </rdf:RDF>
 </metadata>
 <defs>
  <style type="text/css">*{stroke-linejoin: round; stroke-linecap: butt}</style>
 </defs>
 <g id="figure_1">
  <g id="patch_1">
   <path d="M 0 161.28
L 218.88 161.28
L 218.88 0
L 0 0
z
" style="fill: #ffffff"/>
  </g>
  <g id="axes_1">
   <g id="patch_2">
    <path d="M 38.78964 133.215019
L 217.44 133.215019
L 217.44 1.44
L 38.78964 1.44
z
" style="fill: #ffffff"/>
   </g>
   <g id="matplotlib.axis_1">
    <g id="xtick_1">
     <g id="line2d_1">
      <defs>
       <path id="m51a8b0cdbf" d="M 0 0
L 0 -4
" style="stroke: #000000; stroke-width: 0.8"/>
      </defs>
      <g>
       <use xlink:href="#m51a8b0cdbf" x="38.78964" y="133.215019" style="stroke: #000000; stroke-width: 0.8"/>
      </g>
     </g>
     <g id="line2d_2">
      <defs>
       <path id="ma19a5ed049" d="M 0 0
L 0 4
" style="stroke: #000000; stroke-width: 0.8"/>
      </defs>
      <g>
       <use xlink:href="#ma19a5ed049" x="38.78964" y="1.44" style="stroke: #000000; stroke-width: 0.8"/>
      </g>
     </g>
     <g id="text_1">
      <!-- $\mathdefault{0}$ -->
      <g transform="translate(36.020058 144.31334) scale(0.1 -0.1)">
       <defs>
        <path id="NimbusSanL-Regu-30" d="M 1760 4544
C 1338 4544 954 4360 717 4046
C 422 3651 275 3044 275 2208
C 275 683 787 -128 1760 -128
C 2720 -128 3245 683 3245 2170
C 3245 3050 3104 3638 2803 4046
C 2566 4366 2189 4544 1760 4544
z
M 1760 4044
C 2368 4044 2669 3432 2669 2221
C 2669 939 2374 340 1747 340
C 1152 340 851 965 851 2202
C 851 3438 1152 4044 1760 4044
z
" transform="scale(0.015625)"/>
       </defs>
       <use xlink:href="#NimbusSanL-Regu-30" transform="scale(0.996264)"/>
      </g>
     </g>
    </g>
    <g id="xtick_2">
     <g id="line2d_3">
      <g>
       <use xlink:href="#m51a8b0cdbf" x="93.22958" y="133.215019" style="stroke: #000000; stroke-width: 0.8"/>
      </g>
     </g>
     <g id="line2d_4">
      <g>
       <use xlink:href="#ma19a5ed049" x="93.22958" y="1.44" style="stroke: #000000; stroke-width: 0.8"/>
      </g>
     </g>
     <g id="text_2">
      <!-- $\mathdefault{50}$ -->
      <g transform="translate(87.690415 144.31334) scale(0.1 -0.1)">
       <defs>
        <path id="NimbusSanL-Regu-35" d="M 3046 4544
L 704 4544
L 365 2086
L 883 2086
C 1146 2399 1363 2508 1715 2508
C 2323 2508 2707 2092 2707 1421
C 2707 768 2330 372 1715 372
C 1222 372 922 621 787 1133
L 224 1133
C 301 762 365 582 499 415
C 755 70 1216 -128 1728 -128
C 2643 -128 3283 537 3283 1497
C 3283 2394 2688 3008 1818 3008
C 1498 3008 1242 2925 979 2732
L 1158 3987
L 3046 3987
L 3046 4544
z
" transform="scale(0.015625)"/>
       </defs>
       <use xlink:href="#NimbusSanL-Regu-35" transform="scale(0.996264)"/>
       <use xlink:href="#NimbusSanL-Regu-30" transform="translate(55.391677 0) scale(0.996264)"/>
      </g>
     </g>
    </g>
    <g id="xtick_3">
     <g id="line2d_5">
      <g>
       <use xlink:href="#m51a8b0cdbf" x="147.669519" y="133.215019" style="stroke: #000000; stroke-width: 0.8"/>
      </g>
     </g>
     <g id="line2d_6">
      <g>
       <use xlink:href="#ma19a5ed049" x="147.669519" y="1.44" style="stroke: #000000; stroke-width: 0.8"/>
      </g>
     </g>
     <g id="text_3">
      <!-- $\mathdefault{100}$ -->
      <g transform="translate(139.360772 144.31334) scale(0.1 -0.1)">
       <defs>
        <path id="NimbusSanL-Regu-31" d="M 1658 3238
L 1658 0
L 2221 0
L 2221 4545
L 1850 4545
C 1651 3847 1523 3751 653 3642
L 653 3238
L 1658 3238
z
" transform="scale(0.015625)"/>
       </defs>
       <use xlink:href="#NimbusSanL-Regu-31" transform="scale(0.996264)"/>
       <use xlink:href="#NimbusSanL-Regu-30" transform="translate(55.391677 0) scale(0.996264)"/>
       <use xlink:href="#NimbusSanL-Regu-30" transform="translate(110.783354 0) scale(0.996264)"/>
      </g>
     </g>
    </g>
    <g id="xtick_4">
     <g id="line2d_7">
      <g>
       <use xlink:href="#m51a8b0cdbf" x="202.109458" y="133.215019" style="stroke: #000000; stroke-width: 0.8"/>
      </g>
     </g>
     <g id="line2d_8">
      <g>
       <use xlink:href="#ma19a5ed049" x="202.109458" y="1.44" style="stroke: #000000; stroke-width: 0.8"/>
      </g>
     </g>
     <g id="text_4">
      <!-- $\mathdefault{150}$ -->
      <g transform="translate(193.800711 144.31334) scale(0.1 -0.1)">
       <use xlink:href="#NimbusSanL-Regu-31" transform="scale(0.996264)"/>
       <use xlink:href="#NimbusSanL-Regu-35" transform="translate(55.391677 0) scale(0.996264)"/>
       <use xlink:href="#NimbusSanL-Regu-30" transform="translate(110.783354 0) scale(0.996264)"/>
      </g>
     </g>
    </g>
    <g id="xtick_5">
     <g id="line2d_9">
      <defs>
       <path id="m4a1e0f61f7" d="M 0 0
L 0 -2
" style="stroke: #000000; stroke-width: 0.6"/>
      </defs>
      <g>
       <use xlink:href="#m4a1e0f61f7" x="49.677628" y="133.215019" style="stroke: #000000; stroke-width: 0.6"/>
      </g>
     </g>
     <g id="line2d_10">
      <defs>
       <path id="m0d4b625abb" d="M 0 0
L 0 2
" style="stroke: #000000; stroke-width: 0.6"/>
      </defs>
      <g>
       <use xlink:href="#m0d4b625abb" x="49.677628" y="1.44" style="stroke: #000000; stroke-width: 0.6"/>
      </g>
     </g>
    </g>
    <g id="xtick_6">
     <g id="line2d_11">
      <g>
       <use xlink:href="#m4a1e0f61f7" x="60.565616" y="133.215019" style="stroke: #000000; stroke-width: 0.6"/>
      </g>
     </g>
     <g id="line2d_12">
      <g>
       <use xlink:href="#m0d4b625abb" x="60.565616" y="1.44" style="stroke: #000000; stroke-width: 0.6"/>
      </g>
     </g>
    </g>
    <g id="xtick_7">
     <g id="line2d_13">
      <g>
       <use xlink:href="#m4a1e0f61f7" x="71.453604" y="133.215019" style="stroke: #000000; stroke-width: 0.6"/>
      </g>
     </g>
     <g id="line2d_14">
      <g>
       <use xlink:href="#m0d4b625abb" x="71.453604" y="1.44" style="stroke: #000000; stroke-width: 0.6"/>
      </g>
     </g>
    </g>
    <g id="xtick_8">
     <g id="line2d_15">
      <g>
       <use xlink:href="#m4a1e0f61f7" x="82.341592" y="133.215019" style="stroke: #000000; stroke-width: 0.6"/>
      </g>
     </g>
     <g id="line2d_16">
      <g>
       <use xlink:href="#m0d4b625abb" x="82.341592" y="1.44" style="stroke: #000000; stroke-width: 0.6"/>
      </g>
     </g>
    </g>
    <g id="xtick_9">
     <g id="line2d_17">
      <g>
       <use xlink:href="#m4a1e0f61f7" x="104.117568" y="133.215019" style="stroke: #000000; stroke-width: 0.6"/>
      </g>
     </g>
     <g id="line2d_18">
      <g>
       <use xlink:href="#m0d4b625abb" x="104.117568" y="1.44" style="stroke: #000000; stroke-width: 0.6"/>
      </g>
     </g>
    </g>
    <g id="xtick_10">
     <g id="line2d_19">
      <g>
       <use xlink:href="#m4a1e0f61f7" x="115.005555" y="133.215019" style="stroke: #000000; stroke-width: 0.6"/>
      </g>
     </g>
     <g id="line2d_20">
      <g>
       <use xlink:href="#m0d4b625abb" x="115.005555" y="1.44" style="stroke: #000000; stroke-width: 0.6"/>
      </g>
     </g>
    </g>
    <g id="xtick_11">
     <g id="line2d_21">
      <g>
       <use xlink:href="#m4a1e0f61f7" x="125.893543" y="133.215019" style="stroke: #000000; stroke-width: 0.6"/>
      </g>
     </g>
     <g id="line2d_22">
      <g>
       <use xlink:href="#m0d4b625abb" x="125.893543" y="1.44" style="stroke: #000000; stroke-width: 0.6"/>
      </g>
     </g>
    </g>
    <g id="xtick_12">
     <g id="line2d_23">
      <g>
       <use xlink:href="#m4a1e0f61f7" x="136.781531" y="133.215019" style="stroke: #000000; stroke-width: 0.6"/>
      </g>
     </g>
     <g id="line2d_24">
      <g>
       <use xlink:href="#m0d4b625abb" x="136.781531" y="1.44" style="stroke: #000000; stroke-width: 0.6"/>
      </g>
     </g>
    </g>
    <g id="xtick_13">
     <g id="line2d_25">
      <g>
       <use xlink:href="#m4a1e0f61f7" x="158.557507" y="133.215019" style="stroke: #000000; stroke-width: 0.6"/>
      </g>
     </g>
     <g id="line2d_26">
      <g>
       <use xlink:href="#m0d4b625abb" x="158.557507" y="1.44" style="stroke: #000000; stroke-width: 0.6"/>
      </g>
     </g>
    </g>
    <g id="xtick_14">
     <g id="line2d_27">
      <g>
       <use xlink:href="#m4a1e0f61f7" x="169.445495" y="133.215019" style="stroke: #000000; stroke-width: 0.6"/>
      </g>
     </g>
     <g id="line2d_28">
      <g>
       <use xlink:href="#m0d4b625abb" x="169.445495" y="1.44" style="stroke: #000000; stroke-width: 0.6"/>
      </g>
     </g>
    </g>
    <g id="xtick_15">
     <g id="line2d_29">
      <g>
       <use xlink:href="#m4a1e0f61f7" x="180.333483" y="133.215019" style="stroke: #000000; stroke-width: 0.6"/>
      </g>
     </g>
     <g id="line2d_30">
      <g>
       <use xlink:href="#m0d4b625abb" x="180.333483" y="1.44" style="stroke: #000000; stroke-width: 0.6"/>
      </g>
     </g>
    </g>
    <g id="xtick_16">
     <g id="line2d_31">
      <g>
       <use xlink:href="#m4a1e0f61f7" x="191.22147" y="133.215019" style="stroke: #000000; stroke-width: 0.6"/>
      </g>
     </g>
     <g id="line2d_32">
      <g>
       <use xlink:href="#m0d4b625abb" x="191.22147" y="1.44" style="stroke: #000000; stroke-width: 0.6"/>
      </g>
     </g>
    </g>
    <g id="xtick_17">
     <g id="line2d_33">
      <g>
       <use xlink:href="#m4a1e0f61f7" x="212.997446" y="133.215019" style="stroke: #000000; stroke-width: 0.6"/>
      </g>
     </g>
     <g id="line2d_34">
      <g>
       <use xlink:href="#m0d4b625abb" x="212.997446" y="1.44" style="stroke: #000000; stroke-width: 0.6"/>
      </g>
     </g>
    </g>
    <g id="text_5">
     <!-- Phonon Energy (meV) -->
     <g transform="translate(78.835217 157.718014) scale(0.1 -0.1)">
      <defs>
       <path id="NimbusSanL-Regu-50" d="M 1178 1984
L 2643 1984
C 3008 1984 3296 2093 3546 2316
C 3827 2573 3949 2873 3949 3303
C 3949 4179 3430 4672 2509 4672
L 582 4672
L 582 -14
L 1178 -14
L 1178 1984
z
M 1178 2510
L 1178 4146
L 2419 4146
C 2989 4146 3328 3839 3328 3327
C 3328 2816 2989 2510 2419 2510
L 1178 2510
z
" transform="scale(0.015625)"/>
       <path id="NimbusSanL-Regu-68" d="M 448 4672
L 448 -2
L 979 -2
L 979 1852
C 979 2539 1338 2988 1888 2988
C 2061 2988 2234 2930 2362 2834
C 2515 2725 2579 2564 2579 2327
L 2579 -2
L 3110 -2
L 3110 2538
C 3110 3103 2707 3456 2054 3456
C 1581 3456 1293 3308 979 2898
L 979 4672
L 448 4672
z
" transform="scale(0.015625)"/>
       <path id="NimbusSanL-Regu-6f" d="M 1741 3456
C 800 3456 230 2786 230 1663
C 230 541 794 -128 1747 -128
C 2688 -128 3264 541 3264 1638
C 3264 2792 2707 3456 1741 3456
z
M 1747 2962
C 2349 2962 2707 2472 2707 1645
C 2707 861 2336 365 1747 365
C 1152 365 787 855 787 1663
C 787 2466 1152 2962 1747 2962
z
" transform="scale(0.015625)"/>
       <path id="NimbusSanL-Regu-6e" d="M 448 3359
L 448 0
L 986 0
L 986 1853
C 986 2539 1344 2988 1894 2988
C 2317 2988 2586 2731 2586 2327
L 2586 0
L 3117 0
L 3117 2539
C 3117 3097 2701 3456 2054 3456
C 1555 3456 1235 3263 941 2796
L 941 3359
L 448 3359
z
" transform="scale(0.015625)"/>
       <path id="NimbusSanL-Regu-45" d="M 1171 2112
L 3712 2112
L 3712 2638
L 1171 2638
L 1171 4146
L 3808 4146
L 3808 4672
L 576 4672
L 576 0
L 3923 0
L 3923 526
L 1171 526
L 1171 2112
z
" transform="scale(0.015625)"/>
       <path id="NimbusSanL-Regu-65" d="M 3283 1529
C 3283 2034 3245 2338 3149 2584
C 2931 3127 2419 3456 1792 3456
C 858 3456 256 2742 256 1645
C 256 547 838 -128 1779 -128
C 2547 -128 3078 310 3213 1044
L 2675 1044
C 2528 598 2227 365 1798 365
C 1459 365 1171 520 992 805
C 864 998 819 1193 813 1529
L 3283 1529
z
M 826 1984
C 870 2577 1248 2962 1786 2962
C 2310 2962 2714 2530 2714 1984
C 2714 1984 2714 1984 2707 1984
L 826 1984
z
" transform="scale(0.015625)"/>
       <path id="NimbusSanL-Regu-72" d="M 442 3359
L 442 0
L 979 0
L 979 1741
C 979 2221 1101 2535 1357 2720
C 1523 2842 1683 2880 2054 2880
L 2054 3432
C 1965 3444 1920 3444 1850 3444
C 1504 3444 1242 3240 934 2746
L 934 3359
L 442 3359
z
" transform="scale(0.015625)"/>
       <path id="NimbusSanL-Regu-67" d="M 2637 3341
L 2637 2854
C 2368 3252 2042 3438 1613 3438
C 762 3438 186 2692 186 1600
C 186 1048 333 598 608 276
C 858 -7 1216 -173 1568 -173
C 1990 -173 2285 6 2586 429
L 2586 258
C 2586 -192 2528 -465 2394 -649
C 2253 -844 1978 -959 1651 -959
C 1408 -959 1190 -896 1043 -783
C 922 -688 870 -600 838 -406
L 294 -406
C 352 -1033 845 -1408 1632 -1408
C 2131 -1408 2560 -1247 2778 -979
C 3034 -671 3130 -249 3130 538
L 3130 3341
L 2637 3341
z
M 1670 2944
C 2246 2944 2586 2455 2586 1613
C 2586 808 2240 320 1677 320
C 1094 320 742 816 742 1632
C 742 2442 1101 2944 1670 2944
z
" transform="scale(0.015625)"/>
       <path id="NimbusSanL-Regu-79" d="M 2483 3360
L 1555 738
L 698 3360
L 128 3360
L 1261 -21
L 1056 -554
C 973 -792 851 -882 627 -882
C 550 -882 461 -869 346 -843
L 346 -1325
C 454 -1382 563 -1408 704 -1408
C 877 -1408 1062 -1350 1203 -1247
C 1370 -1125 1466 -983 1568 -713
L 3059 3360
L 2483 3360
z
" transform="scale(0.015625)"/>
       <path id="NimbusSanL-Regu-28" d="M 1510 4672
C 870 3830 467 2660 467 1651
C 467 636 870 -534 1510 -1376
L 1862 -1376
C 1299 -457 986 623 986 1651
C 986 2673 1299 3759 1862 4672
L 1510 4672
z
" transform="scale(0.015625)"/>
       <path id="NimbusSanL-Regu-6d" d="M 448 3359
L 448 0
L 986 0
L 986 2109
C 986 2597 1338 2988 1773 2988
C 2170 2988 2394 2744 2394 2314
L 2394 0
L 2931 0
L 2931 2109
C 2931 2597 3283 2988 3718 2988
C 4109 2988 4339 2738 4339 2314
L 4339 0
L 4877 0
L 4877 2520
C 4877 3122 4531 3456 3904 3456
C 3456 3456 3187 3321 2874 2943
C 2675 3302 2406 3456 1971 3456
C 1523 3456 1229 3289 941 2885
L 941 3359
L 448 3359
z
" transform="scale(0.015625)"/>
       <path id="NimbusSanL-Regu-56" d="M 2509 0
L 4128 4672
L 3494 4672
L 2202 718
L 832 4672
L 192 4672
L 1869 0
L 2509 0
z
" transform="scale(0.015625)"/>
       <path id="NimbusSanL-Regu-29" d="M 595 -1376
C 1235 -534 1638 636 1638 1644
C 1638 2660 1235 3830 595 4672
L 243 4672
C 806 3753 1120 2673 1120 1644
C 1120 623 806 -464 243 -1376
L 595 -1376
z
" transform="scale(0.015625)"/>
      </defs>
      <use xlink:href="#NimbusSanL-Regu-50" transform="scale(0.996264)"/>
      <use xlink:href="#NimbusSanL-Regu-68" transform="translate(66.450031 0) scale(0.996264)"/>
      <use xlink:href="#NimbusSanL-Regu-6f" transform="translate(121.841708 0) scale(0.996264)"/>
      <use xlink:href="#NimbusSanL-Regu-6e" transform="translate(177.233385 0) scale(0.996264)"/>
      <use xlink:href="#NimbusSanL-Regu-6f" transform="translate(232.625062 0) scale(0.996264)"/>
      <use xlink:href="#NimbusSanL-Regu-6e" transform="translate(288.016739 0) scale(0.996264)"/>
      <use xlink:href="#NimbusSanL-Regu-45" transform="translate(371.103586 0) scale(0.996264)"/>
      <use xlink:href="#NimbusSanL-Regu-6e" transform="translate(437.553617 0) scale(0.996264)"/>
      <use xlink:href="#NimbusSanL-Regu-65" transform="translate(492.945294 0) scale(0.996264)"/>
      <use xlink:href="#NimbusSanL-Regu-72" transform="translate(548.336971 0) scale(0.996264)"/>
      <use xlink:href="#NimbusSanL-Regu-67" transform="translate(581.5122 0) scale(0.996264)"/>
      <use xlink:href="#NimbusSanL-Regu-79" transform="translate(636.903877 0) scale(0.996264)"/>
      <use xlink:href="#NimbusSanL-Regu-28" transform="translate(714.412247 0) scale(0.996264)"/>
      <use xlink:href="#NimbusSanL-Regu-6d" transform="translate(747.587477 0) scale(0.996264)"/>
      <use xlink:href="#NimbusSanL-Regu-65" transform="translate(830.575907 0) scale(0.996264)"/>
      <use xlink:href="#NimbusSanL-Regu-56" transform="translate(885.967584 0) scale(0.996264)"/>
      <use xlink:href="#NimbusSanL-Regu-29" transform="translate(952.417615 0) scale(0.996264)"/>
     </g>
    </g>
   </g>
   <g id="matplotlib.axis_2">
    <g id="ytick_1">
     <g id="line2d_35">
      <defs>
       <path id="m59d655e63f" d="M 0 0
L 4 0
" style="stroke: #000000; stroke-width: 0.8"/>
      </defs>
      <g>
       <use xlink:href="#m59d655e63f" x="38.78964" y="127.225246" style="stroke: #000000; stroke-width: 0.8"/>
      </g>
     </g>
     <g id="line2d_36">
      <defs>
       <path id="m4e6c398a44" d="M 0 0
L -4 0
" style="stroke: #000000; stroke-width: 0.8"/>
      </defs>
      <g>
       <use xlink:href="#m4e6c398a44" x="217.44" y="127.225246" style="stroke: #000000; stroke-width: 0.8"/>
      </g>
     </g>
     <g id="text_6">
      <!-- $\mathdefault{0.00}$ -->
      <g transform="translate(15.40264 130.774406) scale(0.1 -0.1)">
       <defs>
        <path id="NimbusSanL-Regu-2e" d="M 1222 667
L 557 667
L 557 0
L 1222 0
L 1222 667
z
" transform="scale(0.015625)"/>
       </defs>
       <use xlink:href="#NimbusSanL-Regu-30" transform="scale(0.996264)"/>
       <use xlink:href="#NimbusSanL-Regu-2e" transform="translate(55.391677 0) scale(0.996264)"/>
       <use xlink:href="#NimbusSanL-Regu-30" transform="translate(83.086847 0) scale(0.996264)"/>
       <use xlink:href="#NimbusSanL-Regu-30" transform="translate(138.478524 0) scale(0.996264)"/>
      </g>
     </g>
    </g>
    <g id="ytick_2">
     <g id="line2d_37">
      <g>
       <use xlink:href="#m59d655e63f" x="38.78964" y="93.122685" style="stroke: #000000; stroke-width: 0.8"/>
      </g>
     </g>
     <g id="line2d_38">
      <g>
       <use xlink:href="#m4e6c398a44" x="217.44" y="93.122685" style="stroke: #000000; stroke-width: 0.8"/>
      </g>
     </g>
     <g id="text_7">
      <!-- $\mathdefault{0.02}$ -->
      <g transform="translate(15.40264 96.671845) scale(0.1 -0.1)">
       <defs>
        <path id="NimbusSanL-Regu-32" d="M 3238 558
L 851 558
C 909 930 1114 1167 1670 1494
L 2310 1840
C 2944 2186 3270 2653 3270 3211
C 3270 3589 3117 3942 2848 4185
C 2579 4429 2246 4544 1818 4544
C 1242 4544 813 4339 563 3955
C 403 3711 333 3429 320 2967
L 883 2967
C 902 3275 941 3461 1018 3608
C 1165 3884 1459 4051 1798 4051
C 2310 4051 2694 3685 2694 3198
C 2694 2839 2483 2531 2080 2301
L 1491 1968
C 544 1430 269 1000 218 0
L 3238 0
L 3238 558
z
" transform="scale(0.015625)"/>
       </defs>
       <use xlink:href="#NimbusSanL-Regu-30" transform="scale(0.996264)"/>
       <use xlink:href="#NimbusSanL-Regu-2e" transform="translate(55.391677 0) scale(0.996264)"/>
       <use xlink:href="#NimbusSanL-Regu-30" transform="translate(83.086847 0) scale(0.996264)"/>
       <use xlink:href="#NimbusSanL-Regu-32" transform="translate(138.478524 0) scale(0.996264)"/>
      </g>
     </g>
    </g>
    <g id="ytick_3">
     <g id="line2d_39">
      <g>
       <use xlink:href="#m59d655e63f" x="38.78964" y="59.020123" style="stroke: #000000; stroke-width: 0.8"/>
      </g>
     </g>
     <g id="line2d_40">
      <g>
       <use xlink:href="#m4e6c398a44" x="217.44" y="59.020123" style="stroke: #000000; stroke-width: 0.8"/>
      </g>
     </g>
     <g id="text_8">
      <!-- $\mathdefault{0.04}$ -->
      <g transform="translate(15.40264 62.569283) scale(0.1 -0.1)">
       <defs>
        <path id="NimbusSanL-Regu-34" d="M 2093 1088
L 2093 0
L 2656 0
L 2656 1088
L 3328 1088
L 3328 1594
L 2656 1594
L 2656 4545
L 2240 4545
L 179 1684
L 179 1088
L 2093 1088
z
M 2093 1594
L 672 1594
L 2093 3583
L 2093 1594
z
" transform="scale(0.015625)"/>
       </defs>
       <use xlink:href="#NimbusSanL-Regu-30" transform="scale(0.996264)"/>
       <use xlink:href="#NimbusSanL-Regu-2e" transform="translate(55.391677 0) scale(0.996264)"/>
       <use xlink:href="#NimbusSanL-Regu-30" transform="translate(83.086847 0) scale(0.996264)"/>
       <use xlink:href="#NimbusSanL-Regu-34" transform="translate(138.478524 0) scale(0.996264)"/>
      </g>
     </g>
    </g>
    <g id="ytick_4">
     <g id="line2d_41">
      <g>
       <use xlink:href="#m59d655e63f" x="38.78964" y="24.917562" style="stroke: #000000; stroke-width: 0.8"/>
      </g>
     </g>
     <g id="line2d_42">
      <g>
       <use xlink:href="#m4e6c398a44" x="217.44" y="24.917562" style="stroke: #000000; stroke-width: 0.8"/>
      </g>
     </g>
     <g id="text_9">
      <!-- $\mathdefault{0.06}$ -->
      <g transform="translate(15.40264 28.466722) scale(0.1 -0.1)">
       <defs>
        <path id="NimbusSanL-Regu-36" d="M 3187 3382
C 3078 4111 2592 4544 1901 4544
C 1402 4544 954 4302 685 3900
C 403 3460 275 2904 275 2081
C 275 1321 390 836 659 434
C 902 69 1299 -128 1798 -128
C 2662 -128 3283 518 3283 1415
C 3283 2268 2707 2868 1894 2868
C 1446 2868 1094 2695 851 2362
C 858 3444 1216 4044 1862 4044
C 2259 4044 2534 3803 2624 3382
L 3187 3382
z
M 1824 2368
C 2368 2368 2707 1986 2707 1370
C 2707 793 2323 372 1805 372
C 1280 372 883 813 883 1402
C 883 1973 1267 2368 1824 2368
z
" transform="scale(0.015625)"/>
       </defs>
       <use xlink:href="#NimbusSanL-Regu-30" transform="scale(0.996264)"/>
       <use xlink:href="#NimbusSanL-Regu-2e" transform="translate(55.391677 0) scale(0.996264)"/>
       <use xlink:href="#NimbusSanL-Regu-30" transform="translate(83.086847 0) scale(0.996264)"/>
       <use xlink:href="#NimbusSanL-Regu-36" transform="translate(138.478524 0) scale(0.996264)"/>
      </g>
     </g>
    </g>
    <g id="ytick_5">
     <g id="line2d_43">
      <defs>
       <path id="m418d183b54" d="M 0 0
L 2 0
" style="stroke: #000000; stroke-width: 0.6"/>
      </defs>
      <g>
       <use xlink:href="#m418d183b54" x="38.78964" y="118.699606" style="stroke: #000000; stroke-width: 0.6"/>
      </g>
     </g>
     <g id="line2d_44">
      <defs>
       <path id="m284258496a" d="M 0 0
L -2 0
" style="stroke: #000000; stroke-width: 0.6"/>
      </defs>
      <g>
       <use xlink:href="#m284258496a" x="217.44" y="118.699606" style="stroke: #000000; stroke-width: 0.6"/>
      </g>
     </g>
    </g>
    <g id="ytick_6">
     <g id="line2d_45">
      <g>
       <use xlink:href="#m418d183b54" x="38.78964" y="110.173965" style="stroke: #000000; stroke-width: 0.6"/>
      </g>
     </g>
     <g id="line2d_46">
      <g>
       <use xlink:href="#m284258496a" x="217.44" y="110.173965" style="stroke: #000000; stroke-width: 0.6"/>
      </g>
     </g>
    </g>
    <g id="ytick_7">
     <g id="line2d_47">
      <g>
       <use xlink:href="#m418d183b54" x="38.78964" y="101.648325" style="stroke: #000000; stroke-width: 0.6"/>
      </g>
     </g>
     <g id="line2d_48">
      <g>
       <use xlink:href="#m284258496a" x="217.44" y="101.648325" style="stroke: #000000; stroke-width: 0.6"/>
      </g>
     </g>
    </g>
    <g id="ytick_8">
     <g id="line2d_49">
      <g>
       <use xlink:href="#m418d183b54" x="38.78964" y="84.597044" style="stroke: #000000; stroke-width: 0.6"/>
      </g>
     </g>
     <g id="line2d_50">
      <g>
       <use xlink:href="#m284258496a" x="217.44" y="84.597044" style="stroke: #000000; stroke-width: 0.6"/>
      </g>
     </g>
    </g>
    <g id="ytick_9">
     <g id="line2d_51">
      <g>
       <use xlink:href="#m418d183b54" x="38.78964" y="76.071404" style="stroke: #000000; stroke-width: 0.6"/>
      </g>
     </g>
     <g id="line2d_52">
      <g>
       <use xlink:href="#m284258496a" x="217.44" y="76.071404" style="stroke: #000000; stroke-width: 0.6"/>
      </g>
     </g>
    </g>
    <g id="ytick_10">
     <g id="line2d_53">
      <g>
       <use xlink:href="#m418d183b54" x="38.78964" y="67.545764" style="stroke: #000000; stroke-width: 0.6"/>
      </g>
     </g>
     <g id="line2d_54">
      <g>
       <use xlink:href="#m284258496a" x="217.44" y="67.545764" style="stroke: #000000; stroke-width: 0.6"/>
      </g>
     </g>
    </g>
    <g id="ytick_11">
     <g id="line2d_55">
      <g>
       <use xlink:href="#m418d183b54" x="38.78964" y="50.494483" style="stroke: #000000; stroke-width: 0.6"/>
      </g>
     </g>
     <g id="line2d_56">
      <g>
       <use xlink:href="#m284258496a" x="217.44" y="50.494483" style="stroke: #000000; stroke-width: 0.6"/>
      </g>
     </g>
    </g>
    <g id="ytick_12">
     <g id="line2d_57">
      <g>
       <use xlink:href="#m418d183b54" x="38.78964" y="41.968843" style="stroke: #000000; stroke-width: 0.6"/>
      </g>
     </g>
     <g id="line2d_58">
      <g>
       <use xlink:href="#m284258496a" x="217.44" y="41.968843" style="stroke: #000000; stroke-width: 0.6"/>
      </g>
     </g>
    </g>
    <g id="ytick_13">
     <g id="line2d_59">
      <g>
       <use xlink:href="#m418d183b54" x="38.78964" y="33.443202" style="stroke: #000000; stroke-width: 0.6"/>
      </g>
     </g>
     <g id="line2d_60">
      <g>
       <use xlink:href="#m284258496a" x="217.44" y="33.443202" style="stroke: #000000; stroke-width: 0.6"/>
      </g>
     </g>
    </g>
    <g id="ytick_14">
     <g id="line2d_61">
      <g>
       <use xlink:href="#m418d183b54" x="38.78964" y="16.391922" style="stroke: #000000; stroke-width: 0.6"/>
      </g>
     </g>
     <g id="line2d_62">
      <g>
       <use xlink:href="#m284258496a" x="217.44" y="16.391922" style="stroke: #000000; stroke-width: 0.6"/>
      </g>
     </g>
    </g>
    <g id="ytick_15">
     <g id="line2d_63">
      <g>
       <use xlink:href="#m418d183b54" x="38.78964" y="7.866281" style="stroke: #000000; stroke-width: 0.6"/>
      </g>
     </g>
     <g id="line2d_64">
      <g>
       <use xlink:href="#m284258496a" x="217.44" y="7.866281" style="stroke: #000000; stroke-width: 0.6"/>
      </g>
     </g>
    </g>
    <g id="text_10">
     <!-- $S(\hbar\omega)$ ($1/\mathrm{meV}$) -->
     <g transform="translate(8.91198 100.662259) rotate(-90) scale(0.1 -0.1)">
      <defs>
       <path id="NimbusSanL-ReguItal-53" d="M 4518 3301
C 4557 3479 4570 3563 4570 3659
C 4570 3932 4435 4226 4224 4411
C 3962 4641 3622 4744 3123 4744
C 2464 4744 1946 4559 1600 4202
C 1338 3934 1139 3482 1139 3156
C 1139 2755 1421 2418 1850 2297
L 2944 1990
C 3456 1844 3667 1659 3667 1353
C 3667 1155 3546 914 3366 748
C 3104 512 2726 391 2214 391
C 1491 391 1158 658 1158 1238
C 1158 1320 1165 1378 1184 1498
L 627 1498
C 582 1333 570 1230 570 1096
C 570 331 1146 -128 2112 -128
C 2784 -128 3347 56 3725 407
C 4051 706 4282 1171 4282 1528
C 4282 1694 4224 1873 4128 2026
C 3987 2249 3802 2376 3501 2459
L 2400 2772
C 1907 2912 1754 3039 1754 3319
C 1754 3542 1850 3740 2035 3912
C 2272 4123 2586 4224 3008 4224
C 3366 4224 3635 4154 3776 4027
C 3898 3919 3981 3714 3981 3531
C 3981 3473 3974 3428 3955 3301
L 4518 3301
z
" transform="scale(0.015625)"/>
       <path id="NimbusSanL-Regu-af" d="M 1933 4481
L 179 4481
L 179 4032
L 1933 4032
L 1933 4481
z
" transform="scale(0.015625)"/>
       <path id="NimbusSanL-ReguItal-68" d="M 1440 4672
L 448 0
L 986 0
L 1376 1853
C 1530 2558 1978 2994 2560 2994
C 2886 2994 3104 2776 3104 2449
C 3104 2372 3104 2372 3066 2199
L 2598 0
L 3136 0
L 3648 2411
C 3667 2494 3674 2571 3674 2648
C 3674 3154 3347 3456 2810 3456
C 2330 3456 2016 3321 1613 2943
L 1978 4672
L 1440 4672
z
" transform="scale(0.015625)"/>
       <path id="EURM10-21" d="M 4154 2756
L 4134 2678
C 4442 2411 4570 2002 4570 1605
C 4570 1037 4282 413 3680 413
C 3078 413 2989 1181 2989 1736
C 2989 2159 2989 2622 3046 3006
L 3008 3051
L 2528 2873
L 2528 1669
C 2528 1332 2502 879 2291 668
C 2138 515 1939 401 1722 401
C 1146 401 954 1051 954 1560
C 954 2140 1146 2579 1645 2962
L 1542 3051
C 678 2752 429 1949 429 1204
C 429 625 774 0 1440 0
C 1888 0 2253 346 2541 640
L 2618 640
C 2848 99 3027 0 3392 0
C 4326 0 4998 1090 4998 2011
C 4998 2427 4838 2829 4512 3089
L 4422 3070
L 4154 2756
z
" transform="scale(0.015625)"/>
       <path id="CMMI12-3d" d="M 2746 4562
C 2746 4569 2784 4666 2784 4678
C 2784 4755 2720 4800 2669 4800
C 2637 4800 2579 4800 2528 4659
L 384 -1363
C 384 -1370 346 -1465 346 -1478
C 346 -1555 410 -1600 461 -1600
C 499 -1600 557 -1593 602 -1459
L 2746 4562
z
" transform="scale(0.015625)"/>
      </defs>
      <use xlink:href="#NimbusSanL-ReguItal-53" transform="scale(0.996264)"/>
      <use xlink:href="#NimbusSanL-Regu-28" transform="translate(71.082288 0) scale(0.996264)"/>
      <use xlink:href="#NimbusSanL-Regu-af" transform="translate(104.257518 0) scale(0.996264)"/>
      <use xlink:href="#NimbusSanL-ReguItal-68" transform="translate(87.619532 0) scale(0.996264)"/>
      <use xlink:href="#EURM10-21" transform="translate(144.654248 0) scale(0.996264)"/>
      <use xlink:href="#NimbusSanL-Regu-29" transform="translate(229.438662 0) scale(0.996264)"/>
      <use xlink:href="#NimbusSanL-Regu-28" transform="translate(290.309061 0) scale(0.996264)"/>
      <use xlink:href="#NimbusSanL-Regu-31" transform="translate(323.484291 0) scale(0.996264)"/>
      <use xlink:href="#CMMI12-3d" transform="translate(378.875968 0) scale(0.996264)"/>
      <use xlink:href="#NimbusSanL-Regu-6d" transform="translate(427.650887 0) scale(0.996264)"/>
      <use xlink:href="#NimbusSanL-Regu-65" transform="translate(510.639317 0) scale(0.996264)"/>
      <use xlink:href="#NimbusSanL-Regu-56" transform="translate(566.030994 0) scale(0.996264)"/>
      <use xlink:href="#NimbusSanL-Regu-29" transform="translate(632.481025 0) scale(0.996264)"/>
     </g>
    </g>
   </g>
   <g id="line2d_65">
    <path d="M 38.78964 127.225246
L 62.748005 127.146184
L 64.926039 126.961178
L 66.015055 126.762297
L 67.104072 126.435809
L 68.193088 125.915835
L 69.282105 125.112655
L 70.371121 123.909773
L 71.460138 122.163761
L 72.549155 119.708535
L 73.638171 116.365636
L 74.727188 111.96148
L 75.816204 106.351437
L 76.905221 99.448889
L 77.994238 91.255623
L 80.172271 71.593556
L 83.439321 39.42529
L 84.528337 30.061356
L 85.617354 22.250218
L 86.70637 16.362712
L 87.795387 12.585926
L 88.884404 10.892885
L 89.97342 11.042931
L 91.062437 12.613841
L 92.151453 15.060783
L 94.329486 20.250715
L 95.418503 21.983873
L 96.50752 22.697896
L 97.596536 22.28387
L 98.685553 20.816694
L 99.774569 18.528502
L 103.041619 10.381101
L 104.130636 8.488388
L 105.219652 7.469063
L 106.308669 7.429774
L 107.397686 8.349615
L 108.486702 10.096194
L 109.575719 12.457842
L 115.020802 25.877828
L 118.287851 32.903252
L 119.376868 35.659282
L 120.465885 38.8495
L 121.554901 42.54073
L 122.643918 46.735324
L 124.821951 56.352695
L 129.178017 76.915463
L 131.35605 85.952304
L 133.534084 93.471774
L 134.6231 96.626939
L 135.712117 99.391029
L 136.801133 101.78655
L 137.89015 103.843551
L 138.979167 105.597037
L 140.068183 107.084348
L 141.1572 108.3426
L 142.246216 109.406519
L 144.42425 111.07059
L 146.602283 112.275074
L 148.780316 113.175364
L 153.136382 114.604651
L 158.581465 116.269889
L 160.759498 116.700915
L 162.937532 116.893447
L 166.204581 116.875474
L 169.471631 116.913242
L 171.649664 117.159094
L 173.827697 117.600097
L 179.27278 118.920643
L 181.450814 119.151121
L 183.628847 119.025974
L 185.80688 118.526352
L 187.984913 117.73476
L 195.608029 114.569075
L 198.875079 113.56342
L 201.053112 113.13495
L 203.231145 113.001971
L 205.409179 113.225113
L 207.587212 113.799341
L 209.765245 114.66804
L 211.943278 115.772599
L 214.121311 117.086265
L 217.388361 119.415715
L 217.388361 119.415715
" clip-path="url(#pb1334cbd1e)" style="fill: none; stroke: #000000; stroke-width: 1.2; stroke-linecap: square"/>
   </g>
   <g id="patch_3">
    <path d="M 38.78964 133.215019
L 38.78964 1.44
" style="fill: none; stroke: #000000; stroke-width: 0.8; stroke-linejoin: miter; stroke-linecap: square"/>
   </g>
   <g id="patch_4">
    <path d="M 217.44 133.215019
L 217.44 1.44
" style="fill: none; stroke: #000000; stroke-width: 0.8; stroke-linejoin: miter; stroke-linecap: square"/>
   </g>
   <g id="patch_5">
    <path d="M 38.78964 133.215019
L 217.44 133.215019
" style="fill: none; stroke: #000000; stroke-width: 0.8; stroke-linejoin: miter; stroke-linecap: square"/>
   </g>
   <g id="patch_6">
    <path d="M 38.78964 1.44
L 217.44 1.44
" style="fill: none; stroke: #000000; stroke-width: 0.8; stroke-linejoin: miter; stroke-linecap: square"/>
   </g>
  </g>
 </g>
 <defs>
  <clipPath id="pb1334cbd1e">
   <rect x="38.78964" y="1.44" width="178.65036" height="131.775019"/>
  </clipPath>
 </defs>
</svg>
