<svg xmlns="http://www.w3.org/2000/svg" viewBox="0 0 240 240"><defs></defs><g transform="rotate(-30 120 120)">

  <g><line x1="75" y1="94.02" x2="90" y2="68.04" stroke="#FFFFFF" stroke-width="5.5" stroke-linecap="round" opacity="1"></line><line x1="75" y1="94.02" x2="90" y2="120" stroke="#FFFFFF" stroke-width="5.5" stroke-linecap="round" opacity="1"></line><line x1="90" y1="68.04" x2="120" y2="68.04" stroke="#FFFFFF" stroke-width="5.5" stroke-linecap="round" opacity="1"></line><line x1="120" y1="68.04" x2="135" y2="94.02" stroke="#FFFFFF" stroke-width="5.5" stroke-linecap="round" opacity="1"></line><line x1="75" y1="145.98" x2="90" y2="120" stroke="#FFFFFF" stroke-width="5.5" stroke-linecap="round" opacity="1"></line><line x1="75" y1="145.98" x2="90" y2="171.96" stroke="#FFFFFF" stroke-width="5.5" stroke-linecap="round" opacity="1"></line><line x1="135" y1="94.02" x2="165" y2="94.02" stroke="#FFFFFF" stroke-width="5.5" stroke-linecap="round" opacity="1"></line><line x1="165" y1="94.02" x2="180" y2="120" stroke="#FFFFFF" stroke-width="5.5" stroke-linecap="round" opacity="1"></line><line x1="90" y1="171.96" x2="120" y2="171.96" stroke="#FFFFFF" stroke-width="5.5" stroke-linecap="round" opacity="1"></line><line x1="120" y1="171.96" x2="135" y2="145.98" stroke="#FFFFFF" stroke-width="5.5" stroke-linecap="round" opacity="1"></line><line x1="135" y1="145.98" x2="165" y2="145.98" stroke="#FFFFFF" stroke-width="5.5" stroke-linecap="round" opacity="1"></line><line x1="165" y1="145.98" x2="180" y2="120" stroke="#FFFFFF" stroke-width="5.5" stroke-linecap="round" opacity="1"></line></g>
  <g><line x1="90" y1="120" x2="103.8" y2="120" stroke="#FFFFFF" stroke-width="5.5" stroke-linecap="round"></line><line x1="135" y1="94.02" x2="128.1" y2="105.9708" stroke="#FFFFFF" stroke-width="5.5" stroke-linecap="round"></line><line x1="135" y1="145.98" x2="128.1" y2="134.0292" stroke="#FFFFFF" stroke-width="5.5" stroke-linecap="round"></line></g>
  <circle cx="75" cy="94.02" r="9.5" fill="#0E1116" stroke="#FFFFFF" stroke-width="4"></circle><circle cx="90" cy="68.04" r="10" fill="#FFFFFF"></circle><circle cx="120" cy="68.04" r="9.5" fill="#0E1116" stroke="#FFFFFF" stroke-width="4"></circle><circle cx="75" cy="145.98" r="9.5" fill="#0E1116" stroke="#FFFFFF" stroke-width="4"></circle><circle cx="90" cy="120" r="10" fill="#FFFFFF"></circle><circle cx="135" cy="94.02" r="10" fill="#FFFFFF"></circle><circle cx="165" cy="94.02" r="9.5" fill="#0E1116" stroke="#FFFFFF" stroke-width="4"></circle><circle cx="90" cy="171.96" r="10" fill="#FFFFFF"></circle><circle cx="120" cy="171.96" r="9.5" fill="#0E1116" stroke="#FFFFFF" stroke-width="4"></circle><circle cx="135" cy="145.98" r="10" fill="#FFFFFF"></circle><circle cx="165" cy="145.98" r="9.5" fill="#0E1116" stroke="#FFFFFF" stroke-width="4"></circle><circle cx="180" cy="120" r="10" fill="#FFFFFF"></circle>
  <g transform="rotate(30 120 120)">
    <circle cx="120" cy="120" r="13.5" fill="#FFFFFF"></circle>
  </g></g></svg>
