<svg xmlns="http://www.w3.org/2000/svg" viewBox="0 0 940 240"><defs>
  <radialGradient id="glow_hr" cx="50%" cy="44%" r="58%"><stop offset="0%" stop-color="#FFEAF6"></stop><stop offset="20%" stop-color="#FF6FB5"></stop><stop offset="52%" stop-color="#9B45F0"></stop><stop offset="100%" stop-color="#5B5BF5"></stop></radialGradient>
  <linearGradient id="ring_hr" x1="0" y1="0" x2="1" y2="1"><stop offset="0%" stop-color="#5B5BF5"></stop><stop offset="50%" stop-color="#9B45F0"></stop><stop offset="100%" stop-color="#E0479E"></stop></linearGradient>
  <radialGradient id="halo_hr" cx="50%" cy="50%" r="50%"><stop offset="0%" stop-color="#9B45F0" stop-opacity="0.16"></stop><stop offset="100%" stop-color="#9B45F0" stop-opacity="0"></stop></radialGradient></defs>
<g><g transform="rotate(-30 120 120)">
  <circle cx="120" cy="120" r="74" fill="url(#halo_hr)"></circle>
  <g><line x1="75" y1="94.02" x2="90" y2="68.04" stroke="#FFFFFF" stroke-width="5.5" stroke-linecap="round" opacity="1"></line><line x1="75" y1="94.02" x2="90" y2="120" stroke="#FFFFFF" stroke-width="5.5" stroke-linecap="round" opacity="1"></line><line x1="90" y1="68.04" x2="120" y2="68.04" stroke="#FFFFFF" stroke-width="5.5" stroke-linecap="round" opacity="1"></line><line x1="120" y1="68.04" x2="135" y2="94.02" stroke="#FFFFFF" stroke-width="5.5" stroke-linecap="round" opacity="1"></line><line x1="75" y1="145.98" x2="90" y2="120" stroke="#FFFFFF" stroke-width="5.5" stroke-linecap="round" opacity="1"></line><line x1="75" y1="145.98" x2="90" y2="171.96" stroke="#FFFFFF" stroke-width="5.5" stroke-linecap="round" opacity="1"></line><line x1="135" y1="94.02" x2="165" y2="94.02" stroke="#FFFFFF" stroke-width="5.5" stroke-linecap="round" opacity="1"></line><line x1="165" y1="94.02" x2="180" y2="120" stroke="#FFFFFF" stroke-width="5.5" stroke-linecap="round" opacity="1"></line><line x1="90" y1="171.96" x2="120" y2="171.96" stroke="#FFFFFF" stroke-width="5.5" stroke-linecap="round" opacity="1"></line><line x1="120" y1="171.96" x2="135" y2="145.98" stroke="#FFFFFF" stroke-width="5.5" stroke-linecap="round" opacity="1"></line><line x1="135" y1="145.98" x2="165" y2="145.98" stroke="#FFFFFF" stroke-width="5.5" stroke-linecap="round" opacity="1"></line><line x1="165" y1="145.98" x2="180" y2="120" stroke="#FFFFFF" stroke-width="5.5" stroke-linecap="round" opacity="1"></line></g>
  <g><line x1="90" y1="120" x2="103.8" y2="120" stroke="#FF6FB5" stroke-width="5.5" stroke-linecap="round"></line><line x1="135" y1="94.02" x2="128.1" y2="105.9708" stroke="#FF6FB5" stroke-width="5.5" stroke-linecap="round"></line><line x1="135" y1="145.98" x2="128.1" y2="134.0292" stroke="#FF6FB5" stroke-width="5.5" stroke-linecap="round"></line></g>
  <circle cx="75" cy="94.02" r="9.5" fill="#0E1116" stroke="#FFFFFF" stroke-width="4"></circle><circle cx="90" cy="68.04" r="10" fill="#FFFFFF"></circle><circle cx="120" cy="68.04" r="9.5" fill="#0E1116" stroke="#FFFFFF" stroke-width="4"></circle><circle cx="75" cy="145.98" r="9.5" fill="#0E1116" stroke="#FFFFFF" stroke-width="4"></circle><circle cx="90" cy="120" r="10" fill="#FFFFFF"></circle><circle cx="135" cy="94.02" r="10" fill="#FFFFFF"></circle><circle cx="165" cy="94.02" r="9.5" fill="#0E1116" stroke="#FFFFFF" stroke-width="4"></circle><circle cx="90" cy="171.96" r="10" fill="#FFFFFF"></circle><circle cx="120" cy="171.96" r="9.5" fill="#0E1116" stroke="#FFFFFF" stroke-width="4"></circle><circle cx="135" cy="145.98" r="10" fill="#FFFFFF"></circle><circle cx="165" cy="145.98" r="9.5" fill="#0E1116" stroke="#FFFFFF" stroke-width="4"></circle><circle cx="180" cy="120" r="10" fill="#FFFFFF"></circle>
  <g transform="rotate(30 120 120)">
    <circle cx="120" cy="120" r="43" fill="none" stroke="url(#ring_hr)" stroke-width="2.5" opacity="0.30"></circle>
    <circle cx="120" cy="120" r="28" fill="none" stroke="url(#ring_hr)" stroke-width="3" opacity="0.6"></circle>
    <circle cx="120" cy="120" r="13.5" fill="url(#glow_hr)"></circle>
  </g></g></g>
<text x="288" y="122" font-family="&#39;Space Grotesk&#39;,&#39;Helvetica Neue&#39;,Arial,sans-serif" font-size="104" font-weight="600" letter-spacing="-3" dominant-baseline="central" fill="#FFFFFF">DefectPL</text></svg>
